<svg xmlns="http://www.w3.org/2000/svg" viewBox="0 0 500 500"><g id="freepik--background-complete--inject-10"><path d="M40.63,88.25a20.88,20.88,0,0,1,5-2.29l.94-5L55,80.62l1.31,4.93a20.33,20.33,0,0,1,5.16,1.91l4.21-2.88,6.2,5.73-2.56,4.42a20.74,20.74,0,0,1,2.3,5l5,.94L77,109.1,72,110.42a20.71,20.71,0,0,1-1.91,5.16L73,119.79,67.27,126l-4.41-2.55a20.81,20.81,0,0,1-5,2.3l-.93,5-8.44.32-1.32-4.93A20.61,20.61,0,0,1,42,124.22l-4.21,2.89-6.19-5.74L34.16,117a20.43,20.43,0,0,1-2.3-5l-5-.93-.32-8.44,4.93-1.32a21,21,0,0,1,1.91-5.16l-2.88-4.21,5.73-6.19,4.42,2.55ZM45.36,99.4a9.06,9.06,0,1,0,12.8-.48A9.06,9.06,0,0,0,45.36,99.4Z" style="fill:#f5f5f5"></path><path d="M427.49,266.81a20.74,20.74,0,0,1,5-2.3l.94-5,8.43-.32,1.32,4.93a20.3,20.3,0,0,1,5.16,1.9l4.21-2.88,6.19,5.74-2.55,4.41a21,21,0,0,1,2.3,5l5,.93.32,8.44L458.89,289a20.61,20.61,0,0,1-1.91,5.16l2.89,4.21-5.74,6.19L449.71,302a20.71,20.71,0,0,1-5,2.29l-.93,5-8.44.32L434,304.69a20.86,20.86,0,0,1-5.16-1.91l-4.21,2.88-6.19-5.73,2.55-4.42a20.88,20.88,0,0,1-2.29-5l-5-.94-.32-8.43,4.93-1.32a20.33,20.33,0,0,1,1.91-5.16l-2.88-4.21,5.73-6.19,4.42,2.55ZM432.22,278a9.06,9.06,0,1,0,12.8-.49A9.06,9.06,0,0,0,432.22,278Z" style="fill:#f5f5f5"></path><path d="M51.85,43.13a9.75,9.75,0,0,1,2.32-1.07l.44-2.33,3.92-.15.61,2.29a10.07,10.07,0,0,1,2.4.89l2-1.34,2.87,2.67-1.18,2a9.4,9.4,0,0,1,1.06,2.33l2.34.43.15,3.92-2.3.61a9.49,9.49,0,0,1-.88,2.4l1.34,2-2.67,2.88-2.05-1.19a10,10,0,0,1-2.33,1.07l-.43,2.33L55.5,63l-.62-2.29a9.81,9.81,0,0,1-2.4-.89l-1.95,1.34-2.88-2.67,1.19-2.05a9.37,9.37,0,0,1-1.07-2.32l-2.33-.44-.15-3.92,2.29-.61a9.51,9.51,0,0,1,.89-2.4l-1.34-2,2.66-2.88,2.06,1.19Zm2.2,5.18A4.21,4.21,0,1,0,60,48.09,4.22,4.22,0,0,0,54.05,48.31Z" style="fill:#f5f5f5"></path><path d="M77.49,395.36l-10.43,4.27s3.59,8.76-5.45,12.64a9.14,9.14,0,0,1-10.38-2,10.14,10.14,0,0,1-2.71-8.76c.57-3.64,3.37-7.87,10.9-9.51L49.8,368.44l-10.31,4.22,5.63,13.78S32.19,396.1,38.71,412c6.24,15.25,21.37,13.19,27.22,10.8C70.41,421,85.22,413.68,77.49,395.36Z" style="fill:#ebebeb"></path><rect x="34.96" y="355.56" width="11.31" height="10.56" transform="translate(214.86 679.42) rotate(157.75)" style="fill:#ebebeb"></rect><path d="M442,133.22l9.65,4.05s3.4-8.1,11.88-4.72a8.47,8.47,0,0,1,5.48,8.16,9.39,9.39,0,0,1-4,7.53c-2.77,2-7.38,3-13.41-.91l-9.12,21.76,9.54,4,5.35-12.75s14.83,2.15,21-12.6c5.92-14.11-5.37-22.7-10.78-25C463.48,121,449,116.12,442,133.22Z" style="fill:#ebebeb"></path><rect x="438.29" y="175.21" width="10.5" height="9.81" transform="translate(104.14 -157.49) rotate(22.75)" style="fill:#ebebeb"></rect><polygon points="452.97 83.48 432.19 92.35 434.67 95.44 418.14 105.28 442.2 95.78 439.64 92.59 452.97 83.48" style="fill:#e0e0e0"></polygon><polygon points="381.09 22.51 376.94 60.42 383.54 59.33 384.34 91.79 390.27 48.53 383.47 49.66 381.09 22.51" style="fill:#e0e0e0"></polygon><path d="M421.39,32.4,409.64,65.59a5.7,5.7,0,0,0,2.83,7h0a5.69,5.69,0,0,0,7.51-2.3l17.45-30.94A4.47,4.47,0,0,0,435.24,33l-7.93-3.25A4.48,4.48,0,0,0,421.39,32.4Z" style="fill:#e0e0e0"></path><path d="M413.27,94.42a8.58,8.58,0,1,1-.74-12.1A8.59,8.59,0,0,1,413.27,94.42Z" style="fill:#e0e0e0"></path></g><g id="freepik--Table--inject-10"><path d="M409.43,484.71l.62,0,1.82,0,7.1,0,26.81-.06v.28l-182.6.12-154.83-.08-46.92-.08-12.76-.05-3.32,0-1.13,0,1.13,0,3.32,0,12.76-.05,46.92-.08,154.83-.08,182.6.12v.28L419,484.79l-7.1,0-1.82,0Z"></path></g><g id="freepik--Shape--inject-10"><path d="M423.24,191.73a61.09,61.09,0,0,0,7.52-41.49c-.1-.56-.21-1.12-.35-1.69-1-4.9-1.84-8.89-4.21-13.06-.24-.52-.49-1-.75-1.55s-.52-1-.79-1.53A61.08,61.08,0,0,0,374.34,101c-3.51-33.33-26.81-63.81-58-76s-69-5.42-94.11,16.78C195.66,21.92,159,16.4,127.79,27.59s-56,38.72-63.89,70.93c-2.41,9.84-3.41,20.28-8.44,29.08-3.79,6.65-9.6,11.86-14.57,17.68A84.07,84.07,0,0,0,62,272.19c-16.79,23.06-10.9,59.37,12.31,75.94,13.33,9.51,31.11,13.15,41.27,26,4.32,5.46,6.82,12.13,10.57,18,12.75,20,41.08,28.13,62.5,18l113.78-28.92a149.91,149.91,0,0,0,106.93-34.06c10.91-9.12,20.72-20.2,25.45-33.61s3.6-29.48-5.48-40.43C450.78,251.07,447.72,210.33,423.24,191.73Z" style="fill:#e0e0e0"></path></g><g id="freepik--Gears--inject-10"><path d="M149.82,244.93a21.31,21.31,0,0,1,5.21-2.39l1-5.23,8.8-.34,1.37,5.14a21.83,21.83,0,0,1,5.38,2l4.39-3,6.45,6-2.66,4.6a21.61,21.61,0,0,1,2.4,5.22l5.23,1,.33,8.8L182.56,268a21.83,21.83,0,0,1-2,5.38l3,4.39-6,6.46L173,281.6a21.72,21.72,0,0,1-5.21,2.4l-1,5.23-8.8.33-1.37-5.14a21.83,21.83,0,0,1-5.38-2l-4.39,3-6.45-6,2.66-4.6a21.31,21.31,0,0,1-2.39-5.21l-5.23-1-.34-8.79,5.14-1.38a21.83,21.83,0,0,1,2-5.38l-3-4.39,6-6.45,4.6,2.66Zm4.93,11.63a9.44,9.44,0,1,0,13.35-.51A9.45,9.45,0,0,0,154.75,256.56Z" style="fill:#f5f5f5"></path><path d="M311.79,104a11.41,11.41,0,0,1,2.82-1.3l.53-2.82,4.75-.18.74,2.77a12,12,0,0,1,2.91,1.08l2.37-1.63,3.49,3.24L328,107.61a11.76,11.76,0,0,1,1.29,2.82l2.83.53.18,4.75-2.78.74a11.6,11.6,0,0,1-1.07,2.91l1.62,2.37-3.23,3.48-2.49-1.43a11.58,11.58,0,0,1-2.82,1.29l-.52,2.82-4.75.19-.75-2.78a11.56,11.56,0,0,1-2.9-1.08l-2.37,1.63-3.49-3.23,1.44-2.49a12.19,12.19,0,0,1-1.3-2.82l-2.82-.53-.18-4.75,2.78-.74a11.39,11.39,0,0,1,1.07-2.9L306.08,106l3.23-3.49,2.48,1.44Zm2.67,6.28a5.1,5.1,0,1,0,7.21-.28A5.09,5.09,0,0,0,314.46,110.25Z" style="fill:#f5f5f5"></path><path d="M82.17,301.75a15.41,15.41,0,0,1,3.65-1.67l.68-3.66,6.15-.23,1,3.59a15.36,15.36,0,0,1,3.76,1.39l3.06-2.1,4.52,4.18-1.87,3.22a15.06,15.06,0,0,1,1.68,3.65l3.65.68.24,6.15-3.6.95a14.89,14.89,0,0,1-1.39,3.77l2.1,3.06-4.18,4.51-3.21-1.86a15.06,15.06,0,0,1-3.65,1.68L94,332.71l-6.15.24-1-3.6A15,15,0,0,1,83.17,328l-3.06,2.1-4.52-4.18,1.86-3.21A15.41,15.41,0,0,1,75.78,319l-3.65-.68-.24-6.15,3.59-1a15.36,15.36,0,0,1,1.39-3.76l-2.1-3.07L79,299.89l3.22,1.86Zm3.45,8.13a6.6,6.6,0,1,0,9.32-.36A6.59,6.59,0,0,0,85.62,309.88Z" style="fill:#f5f5f5"></path><path d="M361.27,310.78a15,15,0,0,1,3.64-1.68l.69-3.65,6.14-.24,1,3.6a14.83,14.83,0,0,1,3.76,1.39l3.07-2.1,4.51,4.18-1.86,3.21a15.06,15.06,0,0,1,1.68,3.65l3.65.68.23,6.15-3.59,1a15,15,0,0,1-1.39,3.76l2.1,3.07-4.18,4.51-3.22-1.86a15.16,15.16,0,0,1-3.64,1.67l-.68,3.66L367,342l-1-3.59a15.22,15.22,0,0,1-3.76-1.39l-3.07,2.1-4.51-4.18,1.86-3.22a15.13,15.13,0,0,1-1.67-3.64l-3.66-.69-.23-6.14,3.59-1a15.44,15.44,0,0,1,1.39-3.77l-2.1-3.06,4.18-4.51,3.22,1.86Zm3.45,8.12a6.6,6.6,0,1,0,9.32-.35A6.6,6.6,0,0,0,364.72,318.9Z" style="fill:#f5f5f5"></path></g><g id="freepik--speech-bubbles--inject-10"><path d="M109,198.53a12.91,12.91,0,0,0-8.19-7.59c-3.19-.91-6.93-.55-9.42-2.74-1.18-1-1.88-2.52-2.92-3.7A11.86,11.86,0,0,0,81,181c-9.34-1.26-17.91,5.13-21.32,12.61h0c-3.82,2.53-7.7,5.11-10.59,8.67s-4.66,8.31-3.59,12.76c.78,3.27,3,6.05,3.8,9.32.74,3,.25,6.12.48,9.18s1.54,6.41,4.4,7.53c3.53,1.38,7.9-1.21,11.15.72,2.21,1.31,2.93,4.18,4.73,6,3.14,3.18,8.42,2.36,12.64.9A68.06,68.06,0,0,0,96.65,242a27.66,27.66,0,0,0,7.65-6.54A12.66,12.66,0,0,0,107,226c-.34-2-1.31-3.94-1.44-6-.22-3.61,2.16-6.8,3.45-10.19A15.67,15.67,0,0,0,109,198.53Z" style="fill:#f5f5f5"></path><polygon points="102.04 237.79 92.92 244.07 92.91 244.09 102.24 247.39 102.04 237.79" style="fill:#f5f5f5"></polygon><path d="M72.29,215.13a3.77,3.77,0,1,1-3.76-3.76A3.76,3.76,0,0,1,72.29,215.13Z" style="fill:#263238"></path><path d="M84,215.13a3.76,3.76,0,1,1-3.76-3.76A3.76,3.76,0,0,1,84,215.13Z" style="fill:#263238"></path><path d="M95.66,215.13a3.77,3.77,0,1,1-3.77-3.76A3.76,3.76,0,0,1,95.66,215.13Z" style="fill:#263238"></path><path d="M395.28,135c-.85-1.37-2.67-1.7-4.27-1.84a70.31,70.31,0,0,0-17.45.6c-2,.33-4.94.15-5.14-1.91-.12-1.21,1-2.22,2.11-2.66,2-.75,4.17-.39,6.28-.44s4.51-.75,5.36-2.68c1.29-2.94-2.06-6-5.23-6.44s-6.5.42-9.56-.53l-6.67.14a58,58,0,0,0-14.58,2.12c-1.33.37-2.89,1.08-3,2.45s1.3,2.27,1.94,3.46c1.29,2.39-.82,5.41-3.37,6.35s-5.37.56-8.08.77-5.74,1.35-6.63,3.91c-.71,2,.14,4.34-.48,6.39-.79,2.61-3.67,4-6.35,4.46s-5.52.4-8,1.53a8.82,8.82,0,0,0,3.45,16.85c1.92.05,3.8-.53,5.72-.63a6.58,6.58,0,0,1,4,1,10.11,10.11,0,0,0,7,9.1c2.65.71,5.49.26,8.18.83s5.44,2.84,4.93,5.54c-.36,1.92-2.27,3.33-2.43,5.29-.18,2.38,2.41,4.13,4.79,4.34s4.78-.51,7.17-.37,5.06,1.66,5.11,4c.06,2.66-3.07,4.54-3.13,7.2-.05,2.23,2.09,3.88,4.17,4.69s4.41,1.22,6.05,2.73,1.92,4.74-.12,5.64c3.29-.12,5.23-4.9,2.94-7.28-1.41-1.47-3.79-1.87-4.89-3.59-1.21-1.92-.15-4.58,1.6-6s4-2.08,6.1-3,4.16-2.41,4.69-4.62c.81-3.31-2.37-6.45-5.7-7.19s-6.77.09-10.17.3-7.28-.49-9.2-3.31l11.12-5.29a4.21,4.21,0,0,0,2.48-2.14c.61-1.91-1.57-3.47-3.39-4.3l-7.25-3.29a4.45,4.45,0,0,0-.28-1.29c4.39-1.81,9.36-1.11,14.07-.48s9.75,1.14,14-1,7-7.92,4.26-11.81c-1.48-2.1-4.33-3.53-4.39-6.1-.05-2.12,2-3.73,4-4.41s4.22-.81,6.08-1.83S396.4,136.8,395.28,135Z" style="fill:#f5f5f5"></path><circle cx="342.46" cy="147.17" r="3.6" style="fill:#263238"></circle><path d="M357.24,147.17a3.6,3.6,0,1,1-3.6-3.6A3.6,3.6,0,0,1,357.24,147.17Z" style="fill:#263238"></path><circle cx="364.82" cy="147.17" r="3.6" style="fill:#263238"></circle><path d="M112.82,64.24a20.52,20.52,0,0,0-14.91,34.7c-9.82,2.12-16.13,13.63-13.5,23.33s13,16.33,23,15.63,19-8,22.7-17.38a20.48,20.48,0,0,0,38.19,1.2c4.43,8.24,17,9.62,24.27,3.68s8.89-17,5.42-25.67-11.17-15.14-19.66-19.07c5.41-4.88,6.08-13.82,2.23-20s-11.46-9.5-18.74-9.13-14.12,4.07-19.27,9.23a15,15,0,0,0-28.93,3.05" style="fill:#f5f5f5"></path><path d="M123.94,82.1l9.39,16.55a3.08,3.08,0,0,0,3.86,1.32h0a3.07,3.07,0,0,0,1.72-3.88L132.46,78a2.43,2.43,0,0,0-3.37-1.35L125,78.75A2.42,2.42,0,0,0,123.94,82.1Z" style="fill:#263238"></path><path d="M146.39,107.37a4.63,4.63,0,1,1-5.2-4A4.63,4.63,0,0,1,146.39,107.37Z" style="fill:#263238"></path><path d="M154.33,72.25l.3,16.42a2.66,2.66,0,0,0,2.38,2.6h0A2.67,2.67,0,0,0,159.92,89l2.56-16.37a2.1,2.1,0,0,0-2-2.41l-4-.12A2.08,2.08,0,0,0,154.33,72.25Z" style="fill:#ebebeb"></path><path d="M160.94,100.68a4,4,0,1,1-2.31-5.17A4,4,0,0,1,160.94,100.68Z" style="fill:#ebebeb"></path></g><g id="freepik--Symbols--inject-10"><path d="M305,236.81l-8.51,24a4.12,4.12,0,0,0,2,5.07h0a4.13,4.13,0,0,0,5.44-1.66l12.64-22.41a3.24,3.24,0,0,0-1.6-4.58l-5.74-2.36A3.23,3.23,0,0,0,305,236.81Z" style="fill:#f5f5f5"></path><path d="M299.11,281.72a6.21,6.21,0,1,1-.54-8.76A6.22,6.22,0,0,1,299.11,281.72Z" style="fill:#f5f5f5"></path><path d="M205.73,73.77h8.1s0-7.47,7.08-7.61a6.61,6.61,0,0,1,6.35,4.6,8.61,8.61,0,0,1-.58,7.2c-1.37,2.49-4.39,4.75-9.85,3.69v20.06h8V90s11.24-3.19,11.24-16.78c0-13-10.63-16-15.18-16C217.43,57.15,205.57,58.07,205.73,73.77Z" style="fill:#f5f5f5"></path><rect x="216.81" y="105.84" width="8.14" height="8.34" style="fill:#f5f5f5"></rect></g><g id="freepik--Doodles--inject-10"><path d="M419.09,217.73a3.76,3.76,0,0,1,.34-.31,3.53,3.53,0,0,1,1.21-.6,4.45,4.45,0,0,1,2.23,0,4.58,4.58,0,0,1,2.58,1.65,6.36,6.36,0,0,1,1.3,3.67,9.29,9.29,0,0,1-1.12,4.58,27.54,27.54,0,0,1-7.91,8.69,67,67,0,0,1-5.86,3.91c-2.12,1.27-4.36,2.57-6.78,3.78a47.32,47.32,0,0,1-7.85,3.18,29.5,29.5,0,0,1-4.39,1,24,24,0,0,1-4.66.25,8.53,8.53,0,0,1-4.68-1.2,3.5,3.5,0,0,1-1.42-2.09,4.36,4.36,0,0,1,.32-2.54,12.86,12.86,0,0,1,3.15-4.08,37.34,37.34,0,0,1,4.11-3.36c2.94-2.08,6.07-4,9.29-6a48.22,48.22,0,0,1,10.51-5,26.79,26.79,0,0,1,6-1.16,16.2,16.2,0,0,1,6.17.58,8.68,8.68,0,0,1,5.09,3.71,7,7,0,0,1,.11,6.37,11,11,0,0,1-4.51,4.8,26.31,26.31,0,0,1-6.2,2.62,41.3,41.3,0,0,1-13.71,1.33,103.36,103.36,0,0,1-14.12-2,66.94,66.94,0,0,1-7.11-1.74,29.91,29.91,0,0,1-3.47-1.34,8.9,8.9,0,0,1-3.13-2.13,3.45,3.45,0,0,1-.83-1.78,3.32,3.32,0,0,1,.33-2,6.87,6.87,0,0,1,2.75-2.7,17.55,17.55,0,0,1,7.37-2.1,89.12,89.12,0,0,1,15.58,0,68.41,68.41,0,0,1,7.86,1.18c1.3.27,2.6.6,3.89,1a10.63,10.63,0,0,1,3.76,1.63,4,4,0,0,1,1.67,3.74,5.07,5.07,0,0,1-2.65,3.19,21.63,21.63,0,0,1-7.84,2.58,22.35,22.35,0,0,1-4.17.14,14.43,14.43,0,0,1-4.14-.78,6.19,6.19,0,0,1-3.39-2.59,4.44,4.44,0,0,1,0-4.26,7.48,7.48,0,0,1,7.29-3.88,5.57,5.57,0,0,1,5.21,6.09,4.35,4.35,0,0,1-2.42,3.61,6.43,6.43,0,0,1-4.38.43,5,5,0,0,1-3.56-2.6,2.38,2.38,0,0,1,.23-2.32,3.26,3.26,0,0,1,1.93-1.26,9,9,0,0,1,4.42.53,13.6,13.6,0,0,1,4.06,1.83,7.56,7.56,0,0,1,2.82,3.49,5.33,5.33,0,0,1-.25,4.48,8,8,0,0,1-3.23,3.16,11.32,11.32,0,0,1-4.31,1.39,12.78,12.78,0,0,1-8.67-2.15,15.55,15.55,0,0,1-5.6-7.08,13.26,13.26,0,0,1-.61-9,7.64,7.64,0,0,1,2.69-3.76,11.92,11.92,0,0,1,4.22-1.83,32.67,32.67,0,0,1,9-.7,46.37,46.37,0,0,1,8.94,1,12.69,12.69,0,0,1,7.49,4.76,8.38,8.38,0,0,1,1.49,4.25,10.53,10.53,0,0,1-.69,4.42,15.25,15.25,0,0,1-5.55,6.81,33.3,33.3,0,0,1-3.71,2.32,34.64,34.64,0,0,1-3.94,1.88,15.18,15.18,0,0,1-8.57,1.07,24.85,24.85,0,0,1-14.15-9.11,16,16,0,0,1-2.87-7.9,19.37,19.37,0,0,1,1.1-8.25,19.85,19.85,0,0,1,4.34-7,22.67,22.67,0,0,1,6.62-4.77,23.59,23.59,0,0,1,7.78-2.13,21.41,21.41,0,0,1,7.93.81,12.57,12.57,0,0,1,6.55,4.31,14.16,14.16,0,0,1,2.43,7.37,33.12,33.12,0,0,1-2.62,14.89,30.22,30.22,0,0,1-3.72,6.46,18.11,18.11,0,0,1-5.49,4.86,13,13,0,0,1-7,1.64,11.22,11.22,0,0,1-6.52-2.77,40,40,0,0,1-4.79-5.06,22.83,22.83,0,0,1-3.77-5.73,10.15,10.15,0,0,1-.76-3.34,9.48,9.48,0,0,1,.48-3.35,17.17,17.17,0,0,1,3.34-5.7,20.59,20.59,0,0,1,10.58-6.95,15.44,15.44,0,0,1,11.91,1.62,18,18,0,0,1,7.09,9.09,22.57,22.57,0,0,1,1.33,10.93,15.21,15.21,0,0,1-4.53,9.28,18.12,18.12,0,0,1-8.81,4.17,26.92,26.92,0,0,1-9.13.39,13.8,13.8,0,0,1-7.6-3.57,15.65,15.65,0,0,1-4.14-6.53,16.13,16.13,0,0,1-.67-7,20.26,20.26,0,0,1,4.79-10.67,25,25,0,0,1,6.71-5.42,30.91,30.91,0,0,1,4.86-2.18c1.13-.38,1.73-.53,1.73-.53s-.14.06-.43.15-.72.23-1.28.44A30.26,30.26,0,0,0,395.5,219a25,25,0,0,0-6.64,5.44,20,20,0,0,0-4.71,10.58,15.88,15.88,0,0,0,.69,6.9,15.38,15.38,0,0,0,4.09,6.42,13.62,13.62,0,0,0,7.47,3.49,26.88,26.88,0,0,0,9-.41,18,18,0,0,0,8.66-4.12,14.81,14.81,0,0,0,4.41-9.09,22.35,22.35,0,0,0-1.32-10.76,17.63,17.63,0,0,0-7-8.9A15.06,15.06,0,0,0,398.59,217a20.2,20.2,0,0,0-10.36,6.84,17.12,17.12,0,0,0-3.26,5.56,9.27,9.27,0,0,0-.46,3.22,9.93,9.93,0,0,0,.73,3.19,22.35,22.35,0,0,0,3.72,5.61,38.72,38.72,0,0,0,4.74,5,10.74,10.74,0,0,0,6.27,2.66,12.49,12.49,0,0,0,6.78-1.59,17.7,17.7,0,0,0,5.35-4.75,29.8,29.8,0,0,0,3.64-6.36,32.5,32.5,0,0,0,2.58-14.67,13.72,13.72,0,0,0-2.34-7.13,12.09,12.09,0,0,0-6.31-4.13,20.86,20.86,0,0,0-7.75-.79,23.13,23.13,0,0,0-7.61,2.09,20.61,20.61,0,0,0-10.7,11.51,18.82,18.82,0,0,0-1.07,8.05,15.49,15.49,0,0,0,2.78,7.65,24.46,24.46,0,0,0,13.84,8.9,14.69,14.69,0,0,0,8.28-1,35.39,35.39,0,0,0,3.88-1.86A31.55,31.55,0,0,0,415,242.7a14.7,14.7,0,0,0,5.36-6.57,10.08,10.08,0,0,0,.67-4.2,7.93,7.93,0,0,0-1.4-4,12.22,12.22,0,0,0-7.2-4.56,46.19,46.19,0,0,0-8.83-1,31.9,31.9,0,0,0-8.88.69,11.43,11.43,0,0,0-4,1.74,7,7,0,0,0-2.5,3.51,12.68,12.68,0,0,0,.59,8.68,15.07,15.07,0,0,0,5.41,6.84,12.26,12.26,0,0,0,8.33,2.06,10.57,10.57,0,0,0,4.1-1.32,7.49,7.49,0,0,0,3-2.95,4.77,4.77,0,0,0,.22-4.06,7,7,0,0,0-2.63-3.25,13.35,13.35,0,0,0-3.9-1.76,8.76,8.76,0,0,0-4.16-.52,2.76,2.76,0,0,0-1.63,1.06,1.85,1.85,0,0,0-.18,1.82,4.5,4.5,0,0,0,3.21,2.3,5.94,5.94,0,0,0,4-.38,3.92,3.92,0,0,0,2.15-3.21,5.29,5.29,0,0,0-1.21-3.78,5.21,5.21,0,0,0-3.55-1.75,7,7,0,0,0-6.79,3.6,3.93,3.93,0,0,0,0,3.79,5.77,5.77,0,0,0,3.12,2.36,13.88,13.88,0,0,0,4,.75,21.4,21.4,0,0,0,4.08-.13A21,21,0,0,0,414,236a4.58,4.58,0,0,0,2.43-2.85,3.55,3.55,0,0,0-1.49-3.27,10.21,10.21,0,0,0-3.59-1.54c-1.28-.36-2.57-.69-3.86-1a69.46,69.46,0,0,0-7.81-1.18,90.07,90.07,0,0,0-15.49,0,17.31,17.31,0,0,0-7.18,2,6.41,6.41,0,0,0-2.57,2.51,2.84,2.84,0,0,0,.45,3.23,8.39,8.39,0,0,0,3,2,30.17,30.17,0,0,0,3.42,1.32,62.1,62.1,0,0,0,7.06,1.73,100,100,0,0,0,14.05,2A40.65,40.65,0,0,0,416,239.72a25.82,25.82,0,0,0,6.11-2.57,10.7,10.7,0,0,0,4.36-4.61,6.56,6.56,0,0,0-.09-6,8.38,8.38,0,0,0-4.87-3.54,16.19,16.19,0,0,0-6-.57,26.22,26.22,0,0,0-5.86,1.15,47.7,47.7,0,0,0-10.44,4.94c-3.21,2-6.36,3.91-9.27,6a36.06,36.06,0,0,0-4.08,3.33,12.49,12.49,0,0,0-3.09,4,4,4,0,0,0-.31,2.36,3.17,3.17,0,0,0,1.29,1.9,8.32,8.32,0,0,0,4.52,1.16,24.28,24.28,0,0,0,4.61-.24,29.36,29.36,0,0,0,4.36-1,47.5,47.5,0,0,0,7.81-3.14c2.42-1.2,4.66-2.5,6.77-3.76a63.32,63.32,0,0,0,5.86-3.87,27.56,27.56,0,0,0,7.89-8.6,9.19,9.19,0,0,0,1.13-4.51,6.27,6.27,0,0,0-1.26-3.61,4.45,4.45,0,0,0-2.51-1.63,4.33,4.33,0,0,0-2.19,0A3.83,3.83,0,0,0,419.09,217.73Z" style="fill:#f5f5f5"></path><path d="M313.39,47.38a5.64,5.64,0,0,1,2.49-1.44,7,7,0,0,1,3.56,0,7.29,7.29,0,0,1,4.11,2.63,10.18,10.18,0,0,1,2.07,5.86,14.75,14.75,0,0,1-1.79,7.32c-2.57,4.88-7,9.61-12.67,13.9a106.27,106.27,0,0,1-9.39,6.25c-3.39,2-7,4.11-10.86,6.05A75.22,75.22,0,0,1,278.35,93a47.22,47.22,0,0,1-7,1.56,38.33,38.33,0,0,1-7.45.4A13.48,13.48,0,0,1,256.42,93a5.38,5.38,0,0,1-2.23-3.28,6.71,6.71,0,0,1,.5-4,20.58,20.58,0,0,1,5-6.51,60.65,60.65,0,0,1,6.58-5.38c2.33-1.67,4.78-3.25,7.27-4.83s5-3.19,7.6-4.76a77.27,77.27,0,0,1,16.82-8,42.51,42.51,0,0,1,9.5-1.86,26.14,26.14,0,0,1,9.85.92,17,17,0,0,1,4.57,2.18,11.19,11.19,0,0,1,3.52,3.72,11,11,0,0,1,.18,10.1A17.53,17.53,0,0,1,318.42,79a41.75,41.75,0,0,1-9.91,4.19,66,66,0,0,1-21.92,2.11A163.08,163.08,0,0,1,264,82a105.35,105.35,0,0,1-11.38-2.78,49.83,49.83,0,0,1-5.54-2.14,14.16,14.16,0,0,1-5-3.39,5.41,5.41,0,0,1-1.31-2.78,5.17,5.17,0,0,1,.52-3,10.83,10.83,0,0,1,4.35-4.27,28.24,28.24,0,0,1,11.75-3.35,145.21,145.21,0,0,1,24.93.08,108.25,108.25,0,0,1,12.58,1.9c2.09.43,4.17,1,6.23,1.53a16.89,16.89,0,0,1,6,2.58,7.51,7.51,0,0,1,2.12,2.56,5.23,5.23,0,0,1,.51,3.3,5.91,5.91,0,0,1-1.56,3,12,12,0,0,1-2.62,2,34.51,34.51,0,0,1-12.5,4.12,36.11,36.11,0,0,1-6.66.22,23.4,23.4,0,0,1-6.59-1.24,9.83,9.83,0,0,1-5.34-4.09,6.49,6.49,0,0,1-.85-3.34,7.9,7.9,0,0,1,.88-3.34A11.82,11.82,0,0,1,286,63.37,8.77,8.77,0,0,1,294.26,73a7.32,7.32,0,0,1-1.14,3.34,7.11,7.11,0,0,1-2.66,2.33,10.21,10.21,0,0,1-6.92.68,7.88,7.88,0,0,1-5.6-4.08,3.68,3.68,0,0,1,.35-3.56,5.21,5.21,0,0,1,3-2,9,9,0,0,1,3.58,0c1.17.21,2.3.53,3.43.85a22.57,22.57,0,0,1,6.45,2.91A12.09,12.09,0,0,1,299.22,79a8.86,8.86,0,0,1,.6,3.57,8.49,8.49,0,0,1-1,3.49,12.83,12.83,0,0,1-5.12,5,16.19,16.19,0,0,1-3.31,1.44,17.62,17.62,0,0,1-3.53.76,20.39,20.39,0,0,1-13.8-3.41,24.83,24.83,0,0,1-8.91-11.27,24.33,24.33,0,0,1-1.75-7.09,18,18,0,0,1,.78-7.28,12.13,12.13,0,0,1,4.25-6,18.83,18.83,0,0,1,6.71-2.91,52.2,52.2,0,0,1,14.41-1.13c4.79.25,9.61.44,14.28,1.61s9.15,3.57,11.92,7.56a13.29,13.29,0,0,1,2.36,6.73,16.77,16.77,0,0,1-1.11,7c-1.66,4.5-5.06,8.1-8.82,10.84a53,53,0,0,1-5.94,3.7,54.93,54.93,0,0,1-6.29,3,28.84,28.84,0,0,1-6.7,1.85,21.54,21.54,0,0,1-6.94-.14A35.76,35.76,0,0,1,268.73,91a35.7,35.7,0,0,1-10-9.19,25.49,25.49,0,0,1-4.59-12.58,31.7,31.7,0,0,1,4.65-19.14c.56-1,1.26-1.81,1.88-2.72s1.38-1.71,2.15-2.5a36.1,36.1,0,0,1,10.56-7.61,37.66,37.66,0,0,1,12.42-3.4,34.14,34.14,0,0,1,12.65,1.28A20.06,20.06,0,0,1,308.9,42a22.45,22.45,0,0,1,3.86,11.73,52.62,52.62,0,0,1-4.18,23.79,48.54,48.54,0,0,1-5.93,10.31,28.75,28.75,0,0,1-8.76,7.76,20.71,20.71,0,0,1-11.18,2.62,16.57,16.57,0,0,1-5.56-1.37,21,21,0,0,1-4.8-3,62.86,62.86,0,0,1-7.66-8.1,36.49,36.49,0,0,1-6-9.14,16,16,0,0,1-1.21-5.3,15.44,15.44,0,0,1,.76-5.33,27.91,27.91,0,0,1,5.33-9.1,32.78,32.78,0,0,1,16.88-11.09,24.63,24.63,0,0,1,19,2.58,25.41,25.41,0,0,1,6.93,6.41,32.89,32.89,0,0,1,4.4,8.1,36.3,36.3,0,0,1,2.13,17.46,27.55,27.55,0,0,1-2.37,8.15,22.27,22.27,0,0,1-4.85,6.66c-4,3.71-9.14,5.64-14.08,6.66a43.27,43.27,0,0,1-14.6.63,23.6,23.6,0,0,1-6.64-2,21.74,21.74,0,0,1-5.49-3.74,24.86,24.86,0,0,1-6.62-10.43,25.73,25.73,0,0,1-1.08-11.17A30.85,30.85,0,0,1,260,65.47a33.49,33.49,0,0,1,4.82-7.41,39.56,39.56,0,0,1,10.73-8.69,47.3,47.3,0,0,1,7.77-3.5c1.82-.63,2.78-.87,2.78-.87l-.7.23c-.46.14-1.15.37-2.06.69a48.67,48.67,0,0,0-7.73,3.54,39.92,39.92,0,0,0-10.68,8.7,33.94,33.94,0,0,0-4.77,7.39,30.59,30.59,0,0,0-2.78,9.6,25.28,25.28,0,0,0,1.09,11.07A24.52,24.52,0,0,0,265,96.54a21.77,21.77,0,0,0,12,5.61,43,43,0,0,0,14.5-.64c4.9-1,10-3,13.93-6.61a21.92,21.92,0,0,0,4.77-6.57,27.14,27.14,0,0,0,2.33-8.06A35.89,35.89,0,0,0,310.42,63a32.53,32.53,0,0,0-4.36-8,25,25,0,0,0-6.84-6.31,24.22,24.22,0,0,0-18.7-2.52,32.44,32.44,0,0,0-16.67,11,27.4,27.4,0,0,0-5.25,9,15.21,15.21,0,0,0-.74,5.19A15.74,15.74,0,0,0,259,76.43a36.2,36.2,0,0,0,6,9,63.58,63.58,0,0,0,7.62,8,17.43,17.43,0,0,0,10.11,4.3,20.29,20.29,0,0,0,10.94-2.57,28.67,28.67,0,0,0,8.61-7.64,47.85,47.85,0,0,0,5.87-10.22,52.17,52.17,0,0,0,4.13-23.58,21.89,21.89,0,0,0-3.77-11.48,19.61,19.61,0,0,0-10.19-6.69,33.53,33.53,0,0,0-12.46-1.26,37.44,37.44,0,0,0-12.25,3.36,35.48,35.48,0,0,0-10.41,7.51c-.76.77-1.42,1.64-2.12,2.46s-1.3,1.74-1.85,2.68a31.27,31.27,0,0,0-4.57,18.83,25,25,0,0,0,4.5,12.34,35.13,35.13,0,0,0,9.83,9,35.31,35.31,0,0,0,12.42,5.27,21.07,21.07,0,0,0,6.77.14,29.18,29.18,0,0,0,6.59-1.82,55.65,55.65,0,0,0,6.23-3,50.25,50.25,0,0,0,5.88-3.67c3.72-2.7,7-6.22,8.65-10.6a16.28,16.28,0,0,0,1.07-6.8,12.78,12.78,0,0,0-2.27-6.47,16.68,16.68,0,0,0-5.11-4.71,23.16,23.16,0,0,0-6.51-2.65c-4.59-1.15-9.4-1.34-14.17-1.59a51.46,51.46,0,0,0-14.27,1.12,18.17,18.17,0,0,0-6.52,2.82,11.41,11.41,0,0,0-4.06,5.7,17.43,17.43,0,0,0-.76,7.07,23.71,23.71,0,0,0,1.71,6.93,24.33,24.33,0,0,0,8.72,11,19.84,19.84,0,0,0,13.45,3.32,16.77,16.77,0,0,0,3.43-.73,15.54,15.54,0,0,0,3.21-1.4,12.26,12.26,0,0,0,4.92-4.79,7.85,7.85,0,0,0,.36-6.63,11.53,11.53,0,0,0-4.28-5.28,21.85,21.85,0,0,0-6.3-2.84c-2.22-.61-4.53-1.35-6.74-.85a4.67,4.67,0,0,0-2.7,1.77,3.15,3.15,0,0,0-.3,3.07,5.89,5.89,0,0,0,2.15,2.47,9.3,9.3,0,0,0,3.09,1.31,9.76,9.76,0,0,0,6.57-.63A6.52,6.52,0,0,0,292.69,76a6.68,6.68,0,0,0,1.06-3.1,8.28,8.28,0,0,0-7.76-9,11.33,11.33,0,0,0-11,5.86,7.28,7.28,0,0,0-.82,3.12,6,6,0,0,0,.77,3.09A9.48,9.48,0,0,0,280,79.8,23.14,23.14,0,0,0,286.44,81a35.14,35.14,0,0,0,6.57-.22,33.84,33.84,0,0,0,12.31-4.05,11.11,11.11,0,0,0,2.5-2,5.37,5.37,0,0,0,1.45-2.71,5.77,5.77,0,0,0-2.45-5.38,16.49,16.49,0,0,0-5.79-2.5c-2.06-.57-4.12-1.1-6.2-1.53a107.22,107.22,0,0,0-12.52-1.89,143.29,143.29,0,0,0-24.85-.09c-4,.4-8.11,1.22-11.55,3.28A10.31,10.31,0,0,0,241.73,68a4.73,4.73,0,0,0-.48,2.78,5,5,0,0,0,1.21,2.56,13.54,13.54,0,0,0,4.81,3.26,47.39,47.39,0,0,0,5.48,2.13,105.06,105.06,0,0,0,11.33,2.77,162.8,162.8,0,0,0,22.53,3.29,65.68,65.68,0,0,0,21.79-2.08,41.93,41.93,0,0,0,9.81-4.13,17.29,17.29,0,0,0,7-7.45,10.2,10.2,0,0,0-3.55-13.34,16.94,16.94,0,0,0-4.46-2.13,25.78,25.78,0,0,0-9.71-.91,41.89,41.89,0,0,0-9.42,1.83,77,77,0,0,0-16.75,7.94c-2.59,1.56-5.11,3.17-7.6,4.74s-4.93,3.16-7.26,4.82A60.07,60.07,0,0,0,260,79.45a20.32,20.32,0,0,0-5,6.4,6.37,6.37,0,0,0-.49,3.83,5.17,5.17,0,0,0,2.1,3.11,13.35,13.35,0,0,0,7.29,1.86,37.82,37.82,0,0,0,7.4-.39,46.39,46.39,0,0,0,7-1.54,76,76,0,0,0,12.53-5c3.87-1.93,7.46-4,10.85-6A105.23,105.23,0,0,0,311,75.44c5.67-4.27,10.1-9,12.66-13.81a14.61,14.61,0,0,0,1.8-7.24,10.16,10.16,0,0,0-2-5.81A7.14,7.14,0,0,0,319.42,46a6.94,6.94,0,0,0-3.53,0A5.88,5.88,0,0,0,313.39,47.38Z"></path><path d="M120.41,177.5s-.19,0-.56-.06l-1.61-.26a23.8,23.8,0,0,1-6-1.73,11.23,11.23,0,0,1-3.68-2.68,8.45,8.45,0,0,1-2.25-4.9,5.7,5.7,0,0,1,.56-3,6.36,6.36,0,0,1,2.18-2.41,5.06,5.06,0,0,1,3.33-.84,4.28,4.28,0,0,1,3,1.95,6,6,0,0,1,.82,3.71,9.5,9.5,0,0,1-1.11,3.81,8.51,8.51,0,0,1-1.2,1.67,12.19,12.19,0,0,1-1.51,1.45,14,14,0,0,1-3.73,2.09,15.23,15.23,0,0,1-4.33.89,13.84,13.84,0,0,1-4.55-.47,13.16,13.16,0,0,1-4.26-2,11.75,11.75,0,0,1-3.24-3.59,14.65,14.65,0,0,1-1.78-9.71,13.49,13.49,0,0,1,1.77-4.87,13,13,0,0,1,1.6-2.11A7.22,7.22,0,0,1,96,152.8a3.68,3.68,0,0,1,2.75-.32,3.15,3.15,0,0,1,1.23.75,3.1,3.1,0,0,1,.71,1.26,5.81,5.81,0,0,1,0,2.78,10.92,10.92,0,0,1-.91,2.61c-.85,1.64-1.78,3.19-2.79,4.75A24,24,0,0,1,93.43,169a14.11,14.11,0,0,1-4.78,2.95,9.36,9.36,0,0,1-5.54.33,10.17,10.17,0,0,1-4.7-2.79,14.1,14.1,0,0,1-3-4.48,30.31,30.31,0,0,1-1.84-10.2,24.34,24.34,0,0,1,.09-5.05,7,7,0,0,1,2.13-4.48,4.44,4.44,0,0,1,2.28-1,5.09,5.09,0,0,1,2.45.28,6.47,6.47,0,0,1,3.5,3.16,8.58,8.58,0,0,1,.7,4.53,13.87,13.87,0,0,1-1.17,4.26,19,19,0,0,1-2.16,3.69A20.39,20.39,0,0,1,72,167a18.78,18.78,0,0,1-6.9,1A18,18,0,0,1,59,166.72a20.34,20.34,0,0,1-8-5.86,18.74,18.74,0,0,1-3.15-5.44,11.69,11.69,0,0,1-.48-1.56,5.1,5.1,0,0,1-.13-.54s.19.73.71,2.07a19.33,19.33,0,0,0,3.21,5.34,20.15,20.15,0,0,0,7.93,5.72,17.74,17.74,0,0,0,6,1.26,18.53,18.53,0,0,0,6.77-1.07,20.12,20.12,0,0,0,9.25-6.75,18.38,18.38,0,0,0,2.09-3.61,13.54,13.54,0,0,0,1.13-4.13,8.13,8.13,0,0,0-.67-4.29,6,6,0,0,0-3.25-2.92,4.2,4.2,0,0,0-4.26.67,6.58,6.58,0,0,0-2,4.19,24.73,24.73,0,0,0-.08,4.95,29.87,29.87,0,0,0,1.82,10,13.88,13.88,0,0,0,2.87,4.32,9.74,9.74,0,0,0,4.47,2.65,9,9,0,0,0,5.24-.32,13.47,13.47,0,0,0,4.59-2.84c2.67-2.53,4.5-5.8,6.23-8.93a7.83,7.83,0,0,0,.88-5,2.5,2.5,0,0,0-.59-1,2.67,2.67,0,0,0-1-.62,3.2,3.2,0,0,0-2.37.29,6.75,6.75,0,0,0-2,1.53,12,12,0,0,0-1.54,2A13.07,13.07,0,0,0,91,161.5a14.24,14.24,0,0,0,1.7,9.39,11.73,11.73,0,0,0,7.21,5.39,14.47,14.47,0,0,0,8.61-.38,14,14,0,0,0,3.62-2,11,11,0,0,0,2.61-3,9.28,9.28,0,0,0,1.09-3.64,5.83,5.83,0,0,0-.75-3.49,3.9,3.9,0,0,0-2.76-1.8,4.76,4.76,0,0,0-3.11.77A5.94,5.94,0,0,0,107.1,165a5.36,5.36,0,0,0-.55,2.84,8.26,8.26,0,0,0,2.14,4.76,11.34,11.34,0,0,0,3.59,2.66,25.2,25.2,0,0,0,6,1.81l1.6.3Z"></path></g><g id="freepik--Mug--inject-10"><path d="M50.79,456.87c0,5.9,2.58,9.07,4.75,10.69,2.91,2.17,6.62,2.81,9.94,2.81a31.91,31.91,0,0,0,7.16-.87c4.68,8.05,12.86,14.45,27.15,13.8,31.92-1.48,29.93-43.16,29.93-43.16H66.58s-.1,1.37-.08,3.6c-3-.1-8,.28-11.57,3.33C53,448.67,50.79,451.66,50.79,456.87Zm6.22,0c0-2.3.63-3.95,1.93-5,2.11-1.79,5.75-2,7.91-1.83a55.45,55.45,0,0,0,3.07,13.71c-3.14.56-8,.88-10.67-1.15C57.75,461.43,57,459.58,57,456.87Z" style="fill:#455a64"></path><path d="M115.64,469a21.49,21.49,0,0,1,1.39-2.47,54.82,54.82,0,0,0,3-6.12,52.74,52.74,0,0,0,2.18-6.45,22.69,22.69,0,0,1,.77-2.74,11.92,11.92,0,0,1-.41,2.82,38.05,38.05,0,0,1-2.06,6.57,38.8,38.8,0,0,1-3.18,6.11A11.37,11.37,0,0,1,115.64,469Z" style="fill:#f5f5f5"></path><path d="M110.62,469.71a80.61,80.61,0,0,1,1.71-8.92,78.6,78.6,0,0,1,2.22-8.81,80.14,80.14,0,0,1-1.71,8.92A75.41,75.41,0,0,1,110.62,469.71Z" style="fill:#f5f5f5"></path><path d="M103.05,469a13,13,0,0,1,.32-2.56c.25-1.56.59-3.73.91-6.12s.54-4.58.7-6.16a14.79,14.79,0,0,1,.34-2.55,11.11,11.11,0,0,1,0,2.58c-.07,1.59-.24,3.79-.56,6.2s-.71,4.57-1.06,6.12A12.22,12.22,0,0,1,103.05,469Z" style="fill:#f5f5f5"></path><path d="M96.82,452.51a13.63,13.63,0,0,1,.08,2.38c0,1.46,0,3.48.16,5.7s.34,4.24.51,5.69a13.86,13.86,0,0,1,.2,2.37,8.88,8.88,0,0,1-.57-2.31,51.9,51.9,0,0,1-.66-5.72,49.75,49.75,0,0,1,0-5.74A9.5,9.5,0,0,1,96.82,452.51Z" style="fill:#f5f5f5"></path><path d="M87,450a20.47,20.47,0,0,1,.2,2.68,49.54,49.54,0,0,0,.85,6.41,48.15,48.15,0,0,0,1.71,6.23,20.07,20.07,0,0,1,.85,2.55,10.81,10.81,0,0,1-1.2-2.42,36.2,36.2,0,0,1-1.87-6.26,35.6,35.6,0,0,1-.71-6.49A10.45,10.45,0,0,1,87,450Z" style="fill:#f5f5f5"></path><path d="M76.62,453.92c.16,0,.79,3.47,2.53,7.47s3.85,6.86,3.71,7a8.31,8.31,0,0,1-1.47-1.82,29.41,29.41,0,0,1-2.72-4.94,30.5,30.5,0,0,1-1.74-5.36A8.4,8.4,0,0,1,76.62,453.92Z" style="fill:#f5f5f5"></path><path d="M101.77,376.6a4,4,0,0,1,.55.38,6.92,6.92,0,0,1,1.32,1.39,10.69,10.69,0,0,1,1.79,6.73c-.07,3-1.52,6.41-3.51,9.76s-4.47,6.95-5.4,11.34a11.55,11.55,0,0,0,.36,6.35,20.46,20.46,0,0,0,3,5.22c1.17,1.55,2.37,3,3.38,4.4a19.38,19.38,0,0,1,2.37,4.26,9.47,9.47,0,0,1,.1,6.94,6,6,0,0,1-1,1.64,2.63,2.63,0,0,1-.47.47,8.74,8.74,0,0,0,1.28-2.19,9.5,9.5,0,0,0-.26-6.73,18.93,18.93,0,0,0-2.38-4.13c-1-1.4-2.22-2.81-3.42-4.37a20.55,20.55,0,0,1-3.1-5.34,12,12,0,0,1-.39-6.63c1-4.52,3.55-8.14,5.5-11.47s3.43-6.6,3.55-9.54a10.62,10.62,0,0,0-1.59-6.59A11.28,11.28,0,0,0,101.77,376.6Z" style="fill:#263238"></path><path d="M94.62,381.76s.15.14.39.46a6.63,6.63,0,0,1,.79,1.52,10.23,10.23,0,0,1,0,6.25c-.66,2.62-2.45,5.31-4.36,8.22a28.49,28.49,0,0,0-2.6,4.76,20.7,20.7,0,0,0-1.35,5.63,20.26,20.26,0,0,0,2,10.91c.76,1.55,1.7,2.91,2.5,4.25a17.81,17.81,0,0,1,1.88,3.94,7.81,7.81,0,0,1-.52,6.18,4.93,4.93,0,0,1-1.14,1.29,2.78,2.78,0,0,1-.52.31,6.22,6.22,0,0,0,1.48-1.7,7.74,7.74,0,0,0,.35-6,17.62,17.62,0,0,0-1.9-3.82c-.8-1.32-1.77-2.68-2.56-4.27a20.65,20.65,0,0,1-.69-16.94,28.66,28.66,0,0,1,2.67-4.84c1.94-2.9,3.72-5.52,4.41-8.05a10.4,10.4,0,0,0,.12-6.08A10.86,10.86,0,0,0,94.62,381.76Z" style="fill:#263238"></path><rect x="84.95" y="479.59" width="26.86" height="5.12" transform="translate(196.76 964.3) rotate(180)" style="fill:#455a64"></rect></g><g id="freepik--Plant--inject-10"><path d="M417.17,380.36c-.11.13-1-.41-2-1.22s-1.74-1.57-1.63-1.7,1,.41,2,1.21S417.28,380.22,417.17,380.36Z" style="fill:#263238"></path><path d="M444.65,339.28c.17-3.84.28-7.78-.94-11.42s-4-7-7.78-7.78c-4.29-.89-8.69,1.82-11.1,5.49s-3.23,8.11-3.94,12.44a439.13,439.13,0,0,0-5.39,90.32l17.57,2.46C440.79,399.27,443.25,371.71,444.65,339.28Z" style="fill:#455a64"></path><path d="M433.49,319.94a1.07,1.07,0,0,1-.08.28c-.08.22-.17.48-.29.8-.29.74-.68,1.76-1.17,3-.25.66-.57,1.37-.83,2.19s-.55,1.71-.86,2.66-.63,2-1,3.06l-.91,3.48A154.51,154.51,0,0,0,425,352.84c-1,6.61-1.58,13.93-2.07,21.61-.89,15.4-1,29.37-1.43,39.48-.19,5.05-.36,9.14-.55,12-.1,1.37-.17,2.45-.22,3.25,0,.34-.06.61-.08.84a1.36,1.36,0,0,1,0,.29s0-.1,0-.29,0-.51,0-.85c0-.79.06-1.88.1-3.25.12-2.83.22-6.91.36-12,.28-10.1.35-24.07,1.25-39.49.49-7.71,1.13-15,2.12-21.66a145.7,145.7,0,0,1,3.53-17.42c.34-1.22.66-2.38,1-3.49s.71-2.09,1-3.05.63-1.83.91-2.65.62-1.53.88-2.18l1.28-3c.14-.31.26-.56.35-.77A1.21,1.21,0,0,1,433.49,319.94Z" style="fill:#263238"></path><path d="M435.12,320a12.48,12.48,0,0,1,2.14,3.64A26.92,26.92,0,0,1,438.87,335c-.47,9.71-1.34,23.09-2.49,37.86s-2.45,28.13-3.49,37.78c-.52,4.83-1,8.73-1.3,11.43-.17,1.3-.3,2.33-.4,3.1-.05.32-.08.58-.12.8a1,1,0,0,1-.06.27,1,1,0,0,1,0-.28c0-.22,0-.48.06-.81.07-.76.16-1.8.28-3.11.26-2.76.64-6.65,1.1-11.44.92-9.67,2.14-23,3.3-37.79s2.09-28.14,2.67-37.82A27.52,27.52,0,0,0,437,323.68,25.26,25.26,0,0,0,435.12,320Z" style="fill:#263238"></path><path d="M447.3,365.43a9.92,9.92,0,0,1-3.33-.86c-1.78-.64-3.18-1.29-3.12-1.46a9.92,9.92,0,0,1,3.33.86C446,364.61,447.36,365.26,447.3,365.43Z" style="fill:#263238"></path><path d="M449.42,347.52c.07.16-1.35,1-3.17,1.76s-3.36,1.35-3.43,1.19,1.35-1,3.17-1.76S449.35,347.36,449.42,347.52Z" style="fill:#263238"></path><path d="M448.32,332.91a11.09,11.09,0,0,1-5.2-.36c0-.18,1.19-.24,2.62-.14S448.33,332.73,448.32,332.91Z" style="fill:#263238"></path><path d="M430.19,323.54c-.15.09-.92-.86-1.72-2.14a6.36,6.36,0,0,1-1.19-2.47c.15-.1.92.86,1.72,2.14A6.36,6.36,0,0,1,430.19,323.54Z" style="fill:#263238"></path><path d="M424.2,332.38a5.28,5.28,0,0,1-2.5.26c-1.37,0-2.48-.19-2.48-.37a5.22,5.22,0,0,1,2.49-.26C423.09,332,424.2,332.2,424.2,332.38Z" style="fill:#263238"></path><path d="M419.89,350.06a6.07,6.07,0,0,1-2.62-.72c-1.39-.56-2.46-1.14-2.39-1.3a6.07,6.07,0,0,1,2.62.72C418.89,349.32,420,349.9,419.89,350.06Z" style="fill:#263238"></path><path d="M419.44,364.93c0,.17-1,.52-2.24.79s-2.33.35-2.36.18,1-.53,2.23-.79S419.4,364.76,419.44,364.93Z" style="fill:#263238"></path><path d="M417.41,389.25c0,.17-1,.51-2.37.75s-2.46.3-2.49.12,1-.5,2.38-.74A5.15,5.15,0,0,1,417.41,389.25Z" style="fill:#263238"></path><path d="M416.07,402.68c.08.15-.81.78-2,1.4s-2.19,1-2.27.85.8-.78,2-1.4S416,402.53,416.07,402.68Z" style="fill:#263238"></path><path d="M427,417.92c-.15.09-.92-1-1.72-2.38a7,7,0,0,1-1.18-2.69c.15-.09.92,1,1.72,2.38S427.18,417.83,427,417.92Z" style="fill:#263238"></path><path d="M430.19,392.6c.13.12-.73,1.16-1.92,2.32s-2.24,2-2.36,1.87.74-1.16,1.92-2.32S430.07,392.47,430.19,392.6Z" style="fill:#263238"></path><path d="M429.49,379.31c-.12.12-.92-.54-1.78-1.46s-1.45-1.78-1.32-1.89.93.53,1.78,1.46S429.62,379.19,429.49,379.31Z" style="fill:#263238"></path><path d="M431.67,362.33c.13.11-.59,1.12-1.6,2.26s-1.94,2-2.07,1.83.59-1.12,1.6-2.25S431.54,362.21,431.67,362.33Z" style="fill:#263238"></path><path d="M432.89,350c-.12.12-1.12-.67-2.23-1.76s-1.92-2.08-1.79-2.2,1.12.66,2.23,1.75S433,349.88,432.89,350Z" style="fill:#263238"></path><path d="M435.3,333.35c.15.09-.35,1.2-1.12,2.49s-1.51,2.26-1.66,2.18.35-1.21,1.12-2.5S435.15,333.26,435.3,333.35Z" style="fill:#263238"></path><path d="M439.82,317.91c.16.09-.29,1.2-1,2.5s-1.39,2.28-1.54,2.2a6,6,0,0,1,1-2.5C439,318.82,439.67,317.83,439.82,317.91Z" style="fill:#263238"></path><path d="M445,324.92c.07.16-.63.65-1.57,1.1s-1.77.69-1.84.54.63-.65,1.57-1.1S444.88,324.77,445,324.92Z" style="fill:#263238"></path><path d="M445.08,380.36a7.2,7.2,0,0,1-3.43-.83c-1.82-.77-3.08-1.77-3-1.91s1.47.59,3.22,1.33S445.12,380.18,445.08,380.36Z" style="fill:#263238"></path><path d="M443,392.1c0,.17-1,.52-2.36.78a5.09,5.09,0,0,1-2.48.16c0-.17,1-.52,2.36-.78A5.09,5.09,0,0,1,443,392.1Z" style="fill:#263238"></path><path d="M440.4,412.23c-.1.13-1.44-.78-2.67-2.35s-1.83-3.07-1.68-3.14,1,1.26,2.17,2.75S440.52,412.1,440.4,412.23Z" style="fill:#263238"></path><path d="M412.16,421.44c-.11-.13.6-.93,1.6-1.78s1.89-1.43,2-1.3-.6.93-1.6,1.78S412.28,421.57,412.16,421.44Z" style="fill:#263238"></path><path d="M404,377.5c-1.14-3.57-3.29-7.73-7-7.79a6.25,6.25,0,0,0-5.28,3.53,13,13,0,0,0-1.42,6.47,168.16,168.16,0,0,0,8.06,46.79h13.71A162.58,162.58,0,0,0,404,377.5Z" style="fill:#455a64"></path><path d="M379.23,355c-1.91-7.67-7.63-11.81-14.28-12.19-6.06,1.06-8.41,7-9.13,13.14s1.18,12.2,3.05,18.07l18.06,56.47L394,428.65C388.59,403.43,385.49,380.05,379.23,355Z" style="fill:#455a64"></path><path d="M397,369.71a13.44,13.44,0,0,0-1.17,1.94,12.87,12.87,0,0,0-.64,6.07c.27,2.61.57,5.75,1,9.19s1.07,7.22,1.84,11.16c1.55,7.88,3.3,14.95,4.41,20.11.56,2.57,1,4.66,1.25,6.12.12.66.21,1.21.29,1.67a2.18,2.18,0,0,1,.06.59,1.93,1.93,0,0,1-.19-.57c-.1-.44-.24-1-.4-1.64-.36-1.53-.85-3.58-1.44-6.07-1.22-5.13-3-12.18-4.6-20.09-.77-3.95-1.37-7.74-1.79-11.21-.22-1.73-.37-3.39-.51-4.93s-.29-3-.36-4.3a12.4,12.4,0,0,1,.86-6.2A5.36,5.36,0,0,1,397,369.71Z" style="fill:#263238"></path><path d="M365.2,342.34a23,23,0,0,0-2.06,2.77,19.58,19.58,0,0,0-2.6,8.93c-.26,4,.62,8.69,2.11,13.74s3.14,10.65,4.87,16.5c3.4,11.7,6.48,22.29,8.74,30,1.07,3.8,1.95,6.9,2.57,9.12l.68,2.49a5.42,5.42,0,0,1,.19.88,5.53,5.53,0,0,1-.32-.85c-.19-.62-.45-1.43-.78-2.45-.67-2.21-1.61-5.29-2.77-9.07-2.3-7.72-5.44-18.29-8.91-30l-4.82-16.52c-1.47-5.09-2.33-9.88-2-13.93a19.15,19.15,0,0,1,2.83-9A10.7,10.7,0,0,1,365.2,342.34Z" style="fill:#263238"></path><path d="M390.27,426.83a5.11,5.11,0,0,1-.38-.82c-.23-.55-.59-1.34-1-2.4-.82-2.1-1.86-5.19-2.94-9.06s-2.15-8.55-3.18-13.77-2.08-10.95-3.21-17-2.51-11.7-4-16.77a93.36,93.36,0,0,0-5-13.15,69.92,69.92,0,0,0-4.6-8.29c-.59-1-1.12-1.65-1.44-2.15a5.15,5.15,0,0,1-.48-.76,3.74,3.74,0,0,1,.58.69c.35.48.92,1.14,1.54,2.08a61.85,61.85,0,0,1,4.8,8.24,89.43,89.43,0,0,1,5.13,13.17,169.18,169.18,0,0,1,4.1,16.81c1.12,6,2.19,11.76,3.17,17s2,9.88,3,13.76,2,7,2.73,9.1c.35,1.06.68,1.87.87,2.43A4.82,4.82,0,0,1,390.27,426.83Z" style="fill:#263238"></path><path d="M359.18,371.22c0,.17-.89.54-2.08.82s-2.18.39-2.22.22.89-.54,2.07-.83S359.13,371.05,359.18,371.22Z" style="fill:#263238"></path><path d="M357.37,359.57c0,.18-1.3.25-2.88.31a8.72,8.72,0,0,1-2.9-.08,6,6,0,0,1,2.87-.55C356.08,359.19,357.38,359.4,357.37,359.57Z" style="fill:#263238"></path><path d="M359.29,348.93c-.11.13-1-.47-2.07-1.34s-1.78-1.69-1.66-1.83,1,.47,2.07,1.35S359.4,348.8,359.29,348.93Z" style="fill:#263238"></path><path d="M364.5,339.08c.17,0,.12.87.1,1.88s0,1.83-.21,1.86-.46-.81-.42-1.88S364.33,339,364.5,339.08Z" style="fill:#263238"></path><path d="M375.13,343.72c.15.1-.27.94-.93,1.88s-1.3,1.62-1.44,1.52.27-.94.93-1.88S375,343.62,375.13,343.72Z" style="fill:#263238"></path><path d="M382,355.72c.06.16-.82.67-2,1.14s-2.14.72-2.21.56.82-.67,2-1.14S382,355.56,382,355.72Z" style="fill:#263238"></path><path d="M386.23,368.06a5.18,5.18,0,0,1-2.71,1.18c-1.6.37-2.95.27-2.95.1s1.27-.36,2.81-.71S386.16,367.89,386.23,368.06Z" style="fill:#263238"></path><path d="M367,364.55c-.17-.05-.05-.9.27-1.9s.7-1.77.86-1.72.05.91-.27,1.91S367.16,364.6,367,364.55Z" style="fill:#263238"></path><path d="M369.68,380.05a6,6,0,0,1,.77-2.57c.59-1.35,1.19-2.38,1.35-2.31a6,6,0,0,1-.77,2.56C370.44,379.08,369.84,380.11,369.68,380.05Z" style="fill:#263238"></path><path d="M363.05,384.29a6.38,6.38,0,0,1-2.45-.54c-1.31-.41-2.37-.79-2.33-1s1.18-.06,2.51.36S363.12,384.13,363.05,384.29Z" style="fill:#263238"></path><path d="M366.87,396.92c.1.14-.63.83-1.63,1.55s-1.9,1.18-2,1,.63-.84,1.64-1.55S366.77,396.78,366.87,396.92Z" style="fill:#263238"></path><path d="M369.94,409.51c0,.17-.87.54-2,.82s-2.13.37-2.17.2.86-.53,2-.81S369.9,409.34,369.94,409.51Z" style="fill:#263238"></path><path d="M386.56,378.58c.09.14-.68.76-1.81,1.18s-2.11.48-2.14.31.85-.49,1.92-.89S386.48,378.43,386.56,378.58Z" style="fill:#263238"></path><path d="M388.94,398.17c-.07.16-1-.12-2.06-.62s-1.86-1-1.79-1.19,1,.12,2.06.62S389,398,388.94,398.17Z" style="fill:#263238"></path><path d="M393.13,412.19a6.39,6.39,0,0,1-2.71-.73,6.5,6.5,0,0,1-2.49-1.31,6.64,6.64,0,0,1,2.72.73C392.08,411.44,393.2,412,393.13,412.19Z" style="fill:#263238"></path><path d="M370.61,423.18c-.09-.16,1-.91,2.33-1.93s2.29-1.93,2.42-1.81-.69,1.24-2,2.3S370.68,423.33,370.61,423.18Z" style="fill:#263238"></path><path d="M381.7,416.05c-.18,0-.42-.92-.85-2s-.88-2-.73-2.06.86.65,1.31,1.83S381.86,416,381.7,416.05Z" style="fill:#263238"></path><path d="M378.76,399.18c-.1.15-.82-.2-1.6-.76s-1.34-1.13-1.24-1.27.82.2,1.6.76S378.86,399,378.76,399.18Z" style="fill:#263238"></path><path d="M404.6,372.76c.1.14-.6.83-1.56,1.54s-1.83,1.17-1.93,1,.59-.83,1.56-1.54S404.49,372.62,404.6,372.76Z" style="fill:#263238"></path><path d="M408.49,383.41a3.85,3.85,0,0,1-2.42.25c-1.36-.15-2.37-.6-2.32-.77s1.1,0,2.38.14S408.48,383.23,408.49,383.41Z" style="fill:#263238"></path><path d="M391.75,385.79c0,.17-1,.53-2.28.62s-2.36-.14-2.34-.31,1-.23,2.3-.32S391.72,385.62,391.75,385.79Z" style="fill:#263238"></path><path d="M393.19,375.73c0,.17-1,.19-2.15-.33s-1.77-1.3-1.65-1.42.89.39,1.91.85S393.21,375.55,393.19,375.73Z" style="fill:#263238"></path><path d="M409.93,394.84c-.09.14-1.14-.35-2.34-1.1s-2.09-1.49-2-1.64,1.14.35,2.34,1.11S410,394.69,409.93,394.84Z" style="fill:#263238"></path><rect x="361.46" y="424.71" width="89.32" height="15.83" style="fill:#407BFF"></rect><polygon points="368.13 437.4 378.99 484.71 432.23 484.71 444.11 437.4 368.13 437.4" style="fill:#407BFF"></polygon><path d="M450.73,440.56c0,.18-20.15.32-45,.32s-45-.14-45-.32,20.14-.31,45-.31S450.73,440.39,450.73,440.56Z" style="fill:#263238"></path><path d="M401.06,386.14c-.15.09-.76-.62-1.37-1.59s-1-1.83-.83-1.92.76.62,1.37,1.59S401.2,386.05,401.06,386.14Z" style="fill:#263238"></path><path d="M401.09,398.88a5,5,0,0,1,.47-2.41c.42-1.27.9-2.26,1.06-2.2s0,1.13-.47,2.4S401.25,398.93,401.09,398.88Z" style="fill:#263238"></path><path d="M405.45,412.25c-.16.07-.82-1-1.49-2.39a6.59,6.59,0,0,1-.93-2.66c.16-.07.83,1,1.5,2.39S405.61,412.17,405.45,412.25Z" style="fill:#263238"></path><path d="M396,423c-.13-.11.4-.94,1.19-1.85s1.53-1.55,1.66-1.43-.4.94-1.19,1.85S396.15,423.12,396,423Z" style="fill:#263238"></path><path d="M394,403.47c0,.17-.89.16-1.92,0s-1.84-.46-1.81-.64.89-.16,1.92,0S394.07,403.3,394,403.47Z" style="fill:#263238"></path></g><g id="freepik--Character--inject-10"><path d="M184.79,150.33c-2.77-6.89-8.33-13.07-15.58-14.7s-15,1.57-21.35,5.6-12.31,9.12-15,16.08c-2.56,6.73-1,15.39,4.84,19.43-6.08-3.79-15.39.79-16.87,7.95-1.53,7.4,4.24,15.07,11.54,17,6.38,1.7,13.3-.36,18.6-4.37a15.53,15.53,0,0,0-1.65,18.15c4,6.39,12.38,9.31,19.71,7.65s13.39-7.35,16.45-14.21l2.65-36.7C188,164.81,187.56,157.22,184.79,150.33Z" style="fill:#263238"></path><path d="M179.83,167.17c-7.06,2.29-8.5,8-10,12.77-3.15,10.25.39,25.42,6.13,34.48s12,13.67,22.64,15.2q.52-24.41,1-48.82Z" style="fill:#407BFF"></path><path d="M175.84,195.2a16.91,16.91,0,0,1,1.51-21.62c-3.09-3.89-2-9.87,1.16-13.71s7.8-6.05,12.3-8.13c2.48-11.36,15.23-19.35,26.52-16.62,5.89-8.65,18.43-10,28.48-7.08,2.45.71,4.9,1.64,7.46,1.63a44.12,44.12,0,0,0,5.57-.77c10.22-1.38,20.36,5.82,24.35,15.33a19.18,19.18,0,0,0,2.17,4.43c1.32,1.71,3.34,2.71,5.05,4a16.33,16.33,0,0,1,6.25,12.07c.17,4-1.09,8.19.58,11.79.84,1.81,2.35,3.27,3,5.15,1.89,5.45-4.15,11-3,16.69.23,1.15.75,2.23,1.07,3.36a10.08,10.08,0,0,1-.62,7c-.8,1.68-2.1,3.21-2.21,5.07-.09,1.4.54,2.74.82,4.13.69,3.38-6.6,16.41-9.52,18.25l-87.27.78a16.3,16.3,0,0,1-12.62-14,6,6,0,0,0-.82-3.21,6.86,6.86,0,0,0-2.38-1.55c-5.62-3-6.3-10.73-5.71-17.09a7.43,7.43,0,0,0,0-2.66A9.51,9.51,0,0,0,175.84,195.2Z" style="fill:#263238"></path><path d="M200.85,195.32c-.26-15.44,9.43-33.19,24.77-40.74,9.67-4.76,17.22-4.79,22.3-5.39a35.36,35.36,0,0,1,20.59,4.32c4.81,1.13,22.43,17.27,23.35,34.79,1,19.45,1.49,43.25-1,57.73-4.94,29.13-27.34,32.6-27.34,32.6s2.08,48.42,2.08,48.42l-43,35.28-16.76-56Z" style="fill:#ffbf9d"></path><path d="M263.55,278.63a74.57,74.57,0,0,1-39.1-10.83s10.19,20.67,39.41,18.26Z" style="fill:#ff9a6c"></path><path d="M205.25,223c0-2.17-2.44-7.32-4.58-7.68-5.72-1-16-.6-16.3,13.95-.35,19.89,19.69,16.13,19.74,15.56S205.19,230.53,205.25,223Z" style="fill:#ffbf9d"></path><path d="M198.75,237.49c-.09-.06-.36.24-.95.5a3.46,3.46,0,0,1-2.59,0c-2.08-.8-3.8-4.17-3.83-7.76a11.52,11.52,0,0,1,1.05-4.94,4,4,0,0,1,2.66-2.61,1.77,1.77,0,0,1,2,1c.25.56.12,1,.22,1s.44-.32.29-1.15a2.2,2.2,0,0,0-.76-1.26,2.68,2.68,0,0,0-1.91-.54c-1.53.08-2.94,1.47-3.67,3a11.76,11.76,0,0,0-1.3,5.53c.06,4,2,7.79,4.91,8.67a3.71,3.71,0,0,0,3.18-.47C198.7,238,198.81,237.53,198.75,237.49Z" style="fill:#ff9a6c"></path><path d="M296.13,185.35c-.64-7.23-3.51-14.08-7-20.44-2.41-4.4-5.19-8.7-9-12a47.1,47.1,0,0,0-10.75-6.48c-10-4.72-21.08-8.73-31.84-6.31-5.77,1.3-11,4.37-16,7.45a60.16,60.16,0,0,0-11,7.94,45.76,45.76,0,0,0-7.16,9.52c-4.81,8.17-8.21,17.32-8.86,26.78s-7.82,17.84-2.27,25.54c.43.59,10.32,2.64,11,2.91,1.61.64,3.38-1.1,3.36-2.83s-1.2-3.22-2.48-4.38c2.46-.09,4.15-2.83,4-5.28s-1.61-4.63-3.07-6.61a1.91,1.91,0,0,1-.43-.85c-.1-.84.85-1.36,1.58-1.79,3.54-2.09,3.94-7.92.71-10.48A9,9,0,0,0,213,176.69a2.89,2.89,0,0,1-.29-2.22c.33-.66,1.15-.87,1.86-1.08a11.41,11.41,0,0,0,7.64-12.84,28.91,28.91,0,0,0,8.26-.37,9.68,9.68,0,0,0,6.51-4.7,10.77,10.77,0,0,0,18.22,1,28.26,28.26,0,0,0,13.66-2.12,13.32,13.32,0,0,0,8.68,9.35c.82.27,1.76.52,2.16,1.29a3.16,3.16,0,0,1,.18,1.62c-.14,2.77,1.75,4,3.28,6.28s4.2,5.78,6.87,5c-.29,4.73,2.24,8.18,6.23,10.73Z" style="fill:#263238"></path><path d="M300.24,181.7a7.55,7.55,0,0,0-1.05-2.15c-.42-.66-1-1.44-1.56-2.43a9.21,9.21,0,0,1-1.08-3.73,28.74,28.74,0,0,1,.13-4.92,22.19,22.19,0,0,0-.1-5.9,16.57,16.57,0,0,0-5-9.13,24.65,24.65,0,0,0-3.13-2.36,12.55,12.55,0,0,1-3-2.64,16.25,16.25,0,0,1-1.85-3.76A26.68,26.68,0,0,0,271.2,131a23.45,23.45,0,0,0-4.77-1.84,21.63,21.63,0,0,0-5.22-.64,26.82,26.82,0,0,0-2.68.19c-.9.13-1.77.31-2.66.46a12.84,12.84,0,0,1-5.31,0c-1.78-.37-3.52-1-5.35-1.5a35.36,35.36,0,0,0-5.63-1,34.33,34.33,0,0,0-5.83-.11,30.28,30.28,0,0,0-5.85,1A19.63,19.63,0,0,0,217.83,134l-.74,1,.31-.12a23.1,23.1,0,0,0-26.87,16.85l.16-.2a63.29,63.29,0,0,0-7,3.62,21,21,0,0,0-5.74,5.05,13.68,13.68,0,0,0-2.64,6.84,9.38,9.38,0,0,0,1.84,6.74l0-.33a16.42,16.42,0,0,0-4.66,10.17,16.86,16.86,0,0,0,2,9.9,17.09,17.09,0,0,0,1.31,2,19.42,19.42,0,0,1,1.35,1.78,4.21,4.21,0,0,1,.69,2,12.86,12.86,0,0,1-.07,2.06,32.83,32.83,0,0,0,.15,7.55,15.68,15.68,0,0,0,1.91,5.77,9.76,9.76,0,0,0,3.06,3.25c1,.69,1.93,1,2.43,1.33a4.07,4.07,0,0,1,.72.61,2.32,2.32,0,0,0-.67-.67c-.5-.4-1.41-.7-2.39-1.39a9.84,9.84,0,0,1-3-3.24,15.68,15.68,0,0,1-1.82-5.7,32.46,32.46,0,0,1-.08-7.48,12.3,12.3,0,0,0,.08-2.12,4.6,4.6,0,0,0-.73-2.13,21.79,21.79,0,0,0-1.37-1.83,16,16,0,0,1-1.26-1.93,16.48,16.48,0,0,1-1.88-9.66,16,16,0,0,1,4.56-9.87l.16-.15-.14-.18a8.86,8.86,0,0,1-1.71-6.38,13.06,13.06,0,0,1,2.56-6.57,20.5,20.5,0,0,1,5.59-4.9,63,63,0,0,1,7-3.57l.13-.06,0-.14a22.52,22.52,0,0,1,26.17-16.39l.19.05.13-.17.72-.94a19.11,19.11,0,0,1,9.77-6.32,30.36,30.36,0,0,1,5.72-1,34.22,34.22,0,0,1,5.73.1,35,35,0,0,1,5.53,1c1.81.46,3.56,1.12,5.39,1.5a13.77,13.77,0,0,0,2.78.31,16.54,16.54,0,0,0,2.75-.27c.89-.16,1.77-.34,2.64-.47a25.46,25.46,0,0,1,2.6-.19,21.55,21.55,0,0,1,5.09.61,23.16,23.16,0,0,1,4.66,1.79,26.21,26.21,0,0,1,12.23,13.43,16.4,16.4,0,0,0,1.93,3.86,12.84,12.84,0,0,0,3.11,2.72,23,23,0,0,1,3.09,2.31,15.76,15.76,0,0,1,2.38,2.75,16.31,16.31,0,0,1,2.55,6.14,22.08,22.08,0,0,1,.15,5.82,27.91,27.91,0,0,0-.08,5,9.35,9.35,0,0,0,1.16,3.79c.58,1,1.18,1.76,1.61,2.41a13.29,13.29,0,0,1,.9,1.53C300.16,181.51,300.23,181.7,300.24,181.7Z" style="fill:#455a64"></path><path d="M226.71,130.83s.53-.3,1.5-.77a13.23,13.23,0,0,1,4.34-1.23,12.56,12.56,0,0,1,6.53,1,13,13,0,0,1,5.91,5.43,11.08,11.08,0,0,1,1,2.26,2.48,2.48,0,0,1-.16,2.1l-.49.67.8-.22a8.21,8.21,0,0,1,6.15.78,7.9,7.9,0,0,1,3.34,3.71,8.77,8.77,0,0,1,.76,3.28c0,.8-.05,1.24,0,1.24s0-.1.1-.31a5.36,5.36,0,0,0,.11-.93,8.38,8.38,0,0,0-.61-3.43,8.21,8.21,0,0,0-3.44-4,8.63,8.63,0,0,0-6.55-.9l.31.45a3,3,0,0,0,.27-2.59,11.28,11.28,0,0,0-1-2.4,13.28,13.28,0,0,0-6.2-5.65,12.73,12.73,0,0,0-6.81-.92,12.36,12.36,0,0,0-4.4,1.45,7.65,7.65,0,0,0-1.06.68C226.81,130.71,226.7,130.81,226.71,130.83Z" style="fill:#455a64"></path><path d="M194.25,153.41a3.17,3.17,0,0,0,.69.71,12.46,12.46,0,0,0,2.24,1.59,9.58,9.58,0,0,0,4,1.22,7.13,7.13,0,0,0,5-1.46l-.44-.07.58.82c.21.27.44.53.67.79a11.89,11.89,0,0,0,4.94,3.13,12.46,12.46,0,0,0,4.74.64,11,11,0,0,0,3.14-.69,4,4,0,0,0,1-.55,16.85,16.85,0,0,1-4.2.81,12.6,12.6,0,0,1-4.54-.73,11.72,11.72,0,0,1-4.68-3c-.22-.25-.44-.49-.64-.74l-.55-.77-.19-.28-.25.2a6.64,6.64,0,0,1-4.54,1.39,9.45,9.45,0,0,1-3.81-1.05C195.34,154.31,194.32,153.32,194.25,153.41Z" style="fill:#455a64"></path><path d="M183.59,171.77s0,.13,0,.37a3.69,3.69,0,0,0,.43,1,5.33,5.33,0,0,0,3.19,2.15,10.11,10.11,0,0,0,5.69-.57,33,33,0,0,0,3.15-1.21,5.47,5.47,0,0,0,2.77-2.49l.12-.31-.47.13a22.8,22.8,0,0,0,5.87,3.59A10.21,10.21,0,0,0,210,175a7.36,7.36,0,0,0,3.45-1.53,5.45,5.45,0,0,0,.73-.73c.14-.19.21-.29.19-.31s-.35.35-1.06.85a7.64,7.64,0,0,1-3.38,1.31,10,10,0,0,1-5.32-.72,23.3,23.3,0,0,1-5.7-3.55l-.31-.25-.16.39c0,.09-.06.18-.1.27a5,5,0,0,1-2.48,2.2c-1,.48-2.08.86-3.07,1.22a10,10,0,0,1-5.41.68,5.26,5.26,0,0,1-3.09-1.88A7.91,7.91,0,0,1,183.59,171.77Z" style="fill:#455a64"></path><path d="M283.71,210.42c-.44.5-3.3-1.47-7.25-1.34s-6.8,2.21-7.24,1.74c-.22-.21.22-1.09,1.45-2a10.17,10.17,0,0,1,5.78-2,9.68,9.68,0,0,1,5.79,1.66C283.49,209.35,283.93,210.2,283.71,210.42Z" style="fill:#263238"></path><path d="M244.89,213.23c-.49.44-3.12-1.81-7.07-2.08s-7,1.5-7.38,1c-.2-.23.32-1.06,1.66-1.89a10.06,10.06,0,0,1,5.94-1.39,9.71,9.71,0,0,1,5.59,2.26C244.78,212.13,245.13,213,244.89,213.23Z" style="fill:#263238"></path><path d="M260.32,230.67c0-.22,2.42-.72,6.39-1.36,1-.14,2-.37,2.11-1.07s-.24-1.81-.77-3l-3.24-7.6c-4.5-10.82-7.8-19.74-7.36-19.92s4.44,8.46,8.95,19.28c1.08,2.67,2.12,5.21,3.11,7.65.42,1.14,1.12,2.42.65,3.95a2.54,2.54,0,0,1-1.61,1.53,6.5,6.5,0,0,1-1.71.29C262.83,230.8,260.34,230.9,260.32,230.67Z" style="fill:#263238"></path><path d="M254.19,236.58c-1.48.27-4.84,2.28-5.71,3.9s-2,4.16-1.16,5.63c.73,1.26,6.07-.3,8.32-.67,1-.17,3.59,1.06,3.94-.24l.62-4.62c.09-2.16-1.33-3.11-2.8-3.71A5.72,5.72,0,0,0,254.19,236.58Z" style="fill:#ff9a6c"></path><path d="M225.14,191.16c.38-1.08,4.34-.59,9-1.18s8.39-1.89,9-.93c.28.46-.37,1.48-1.88,2.53a15.72,15.72,0,0,1-13.71,1.61C225.84,192.52,225,191.68,225.14,191.16Z" style="fill:#263238"></path><path d="M266.61,185.32c.93-.77,3.91.62,7.67,1.22s7,.43,7.62,1.47c.25.5-.38,1.32-1.9,2a12,12,0,0,1-6.46.53,11.86,11.86,0,0,1-5.86-2.69C266.49,186.68,266.19,185.7,266.61,185.32Z" style="fill:#263238"></path><path d="M258.23,245.52a35.32,35.32,0,0,0-4.37.59,15.68,15.68,0,0,0-2.08.68,8.28,8.28,0,0,1-2.6.83,2.38,2.38,0,0,1-1.65-.48,2.81,2.81,0,0,1-.94-1.46,5.05,5.05,0,0,1,.22-3.34,9.49,9.49,0,0,1,1.73-2.73,9.65,9.65,0,0,1,2.26-2,8.77,8.77,0,0,1,4.83-1.39,7.11,7.11,0,0,1,3.26.83c.7.37,1,.69,1,.74s-.43-.13-1.14-.37a7.94,7.94,0,0,0-3.09-.46,8.39,8.39,0,0,0-4.31,1.45,9.57,9.57,0,0,0-2,1.82,9.1,9.1,0,0,0-1.53,2.45,4.21,4.21,0,0,0-.22,2.67,1.53,1.53,0,0,0,1.57,1.28,8.13,8.13,0,0,0,2.33-.68,14,14,0,0,1,2.25-.6C256.51,244.88,258.26,245.41,258.23,245.52Z" style="fill:#263238"></path><circle cx="198.76" cy="244.62" r="8" style="fill:#455a64"></circle><path d="M232.26,176.5s0-.27.23-.75a7.85,7.85,0,0,1,1.23-1.87,9.08,9.08,0,0,1,2.86-2.11,8.7,8.7,0,0,1,4.67-.76,5.21,5.21,0,0,1,2.66,1,2.86,2.86,0,0,1,1,1.32,2.28,2.28,0,0,1-.13,1.77,3.29,3.29,0,0,1-3,1.66,8.34,8.34,0,0,1-3.39-.8,9.33,9.33,0,0,1-5-5.35,8.63,8.63,0,0,1,1.15-7.73,7.83,7.83,0,0,1,7.15-3.09,6.2,6.2,0,0,1,3.56,1.51,4.32,4.32,0,0,1,1.13,1.6,2.84,2.84,0,0,1,0,2,3.12,3.12,0,0,1-1.27,1.47,5.05,5.05,0,0,1-1.65.66,7.59,7.59,0,0,1-3.29,0,8,8,0,0,1-4.76-3.23,7.07,7.07,0,0,1-1.18-4.59,7.84,7.84,0,0,1,1.08-3.4,6.72,6.72,0,0,1,1.46-1.71c.4-.31.64-.44.66-.41a11.59,11.59,0,0,0-1.76,2.32,7.64,7.64,0,0,0-.85,3.23,6.5,6.5,0,0,0,1.19,4.14,7.3,7.3,0,0,0,4.35,2.81,6.87,6.87,0,0,0,2.89,0,3,3,0,0,0,2.23-1.58,2.46,2.46,0,0,0-.94-2.56,5.36,5.36,0,0,0-3-1.23,6.82,6.82,0,0,0-6.19,2.7,7.61,7.61,0,0,0-1,6.78,8.38,8.38,0,0,0,4.39,4.81,7.41,7.41,0,0,0,3,.75,2.4,2.4,0,0,0,2.22-1.14,1.64,1.64,0,0,0-.58-2.07,4.45,4.45,0,0,0-2.25-.93,8.11,8.11,0,0,0-4.33.56,9.2,9.2,0,0,0-2.81,1.86A14.5,14.5,0,0,0,232.26,176.5Z" style="fill:#263238"></path><path d="M140.75,172a6.68,6.68,0,0,1-1.29.25c-.85.13-2.11.32-3.76.43a19.1,19.1,0,0,1-6-.47,12.86,12.86,0,0,1-3.52-1.51,9.62,9.62,0,0,1-3.09-3,9.36,9.36,0,0,1-1.33-4.6,19.41,19.41,0,0,1,.57-5.13,22.54,22.54,0,0,1,5.24-10.05,16.17,16.17,0,0,1,5-3.68,13.1,13.1,0,0,1,3.12-1,14.24,14.24,0,0,1,3.33-.18,14,14,0,0,1,6.52,2.06,12.15,12.15,0,0,1,2.68,2.34,10.87,10.87,0,0,1,1.79,3.17l.44,1.22-1.16-.59A8.19,8.19,0,0,1,146,148a10.48,10.48,0,0,1-1.37-4.58,10.84,10.84,0,0,1,.47-4,13.78,13.78,0,0,1,1.76-3.54,19.57,19.57,0,0,1,5.55-5.2,27.46,27.46,0,0,1,13.51-4.33,22.23,22.23,0,0,1,12.47,3,20.57,20.57,0,0,1,7.74,8.08,17.44,17.44,0,0,1,.06,15.77,14.78,14.78,0,0,1-2.55,3.58,9,9,0,0,1-.85.77c-.2.17-.3.25-.31.23a11.56,11.56,0,0,1,1-1.14,15.57,15.57,0,0,0,2.35-3.62,17.1,17.1,0,0,0,1.59-6.59,16.53,16.53,0,0,0-1.94-8.66,20,20,0,0,0-7.53-7.68,21.48,21.48,0,0,0-12-2.82,26.6,26.6,0,0,0-13,4.23,18.66,18.66,0,0,0-5.25,4.93,10.73,10.73,0,0,0-2,6.89,8.26,8.26,0,0,0,4.16,6.95l-.72.63a10,10,0,0,0-1.6-2.85,11,11,0,0,0-2.44-2.13,12.91,12.91,0,0,0-6-1.93,13.49,13.49,0,0,0-10.77,4.52,21.66,21.66,0,0,0-5.11,9.61,18.79,18.79,0,0,0-.61,4.9,8.72,8.72,0,0,0,1.16,4.27,9.09,9.09,0,0,0,2.84,2.88,12.32,12.32,0,0,0,3.33,1.51,19.74,19.74,0,0,0,5.86.61c1.63,0,2.89-.17,3.75-.24A6.16,6.16,0,0,1,140.75,172Z" style="fill:#263238"></path><path d="M158.16,210.5a3.75,3.75,0,0,1-1.45.6,14.12,14.12,0,0,1-4.26.5,15.94,15.94,0,0,1-6.22-1.44,11.61,11.61,0,0,1-3.23-2.1,5.14,5.14,0,0,1-1.73-3.91,6.65,6.65,0,0,1,1.75-3.86,17.94,17.94,0,0,1,2.8-2.56,24.12,24.12,0,0,1,5.51-3.16,21.33,21.33,0,0,1,4.09-1.23,4,4,0,0,1,1.56-.13c0,.18-2.16.54-5.35,2a26.34,26.34,0,0,0-5.22,3.25A17.73,17.73,0,0,0,143.8,201a5.7,5.7,0,0,0-1.49,3.25,4.12,4.12,0,0,0,1.41,3.13,11.25,11.25,0,0,0,2.92,2,16.25,16.25,0,0,0,5.85,1.58C156,211.13,158.12,210.3,158.16,210.5Z" style="fill:#263238"></path><path d="M247,219.67c-.07.15-1.19-.31-3.05-.75a25,25,0,0,0-3.3-.52,24.34,24.34,0,0,0-4.08,0,25.07,25.07,0,0,0-4,.79,22.3,22.3,0,0,0-3.13,1.18c-1.73.8-2.73,1.48-2.83,1.34s.78-1,2.49-2a18,18,0,0,1,3.18-1.44,19,19,0,0,1,8.47-.86,18,18,0,0,1,3.4.76C246,218.86,247,219.56,247,219.67Z" style="fill:#ff9a6c"></path><path d="M329.78,484.71l-11.5-28.95,7.37-43,2-25.41c-.37-16.39-1.76-29.05-8.53-44l-21-51.93-25.68,7a40.25,40.25,0,0,0-3.25-9.53c-4.8-9.12-66.85-6-70.86-2.75-2.55,2.09-3.81,9.61-4.39,14.81l-21.59-.11-25.44,65.38c.81,1.8,16.5,22.75,16.5,22.75L179,475.14l-5,9Z" style="fill:#407BFF"></path><path d="M204,310.92a3.81,3.81,0,0,1-.36-1,25.76,25.76,0,0,1-.65-2.8,34.21,34.21,0,0,1,1.95-18.66,25.43,25.43,0,0,1,1.21-2.6,3.77,3.77,0,0,1,.55-.9c.08,0-.6,1.38-1.42,3.64a38.14,38.14,0,0,0-1.92,18.46C203.67,309.45,204.06,310.9,204,310.92Z" style="fill:#263238"></path><path d="M221.17,311.79a4.47,4.47,0,0,1-.28-1.08c-.15-.7-.32-1.73-.48-3a75.16,75.16,0,0,1-.52-10c0-3.91.25-7.44.43-10l.25-3a4.41,4.41,0,0,1,.16-1.1,4.86,4.86,0,0,1,0,1.11c0,.72,0,1.75-.08,3-.08,2.56-.25,6.09-.28,10a99.28,99.28,0,0,0,.37,10C221,310.21,221.25,311.77,221.17,311.79Z" style="fill:#263238"></path><path d="M239.7,308.57a36.14,36.14,0,0,1,.14-3.78,85.45,85.45,0,0,0,0-9.1,54.29,54.29,0,0,0-1.31-9c-.53-2.26-1-3.63-.91-3.66a4,4,0,0,1,.41.93,26.68,26.68,0,0,1,.86,2.64,44.3,44.3,0,0,1,1.47,9,64.26,64.26,0,0,1-.15,9.15c-.1,1.17-.21,2.11-.31,2.76A3.56,3.56,0,0,1,239.7,308.57Z" style="fill:#263238"></path><path d="M257.11,310.92c-.09,0,.43-1.48,1-3.89a33,33,0,0,0,.79-9.58,31.7,31.7,0,0,0-2.16-9.35c-.93-2.3-1.68-3.64-1.59-3.69a4.41,4.41,0,0,1,.59.91,24.88,24.88,0,0,1,1.34,2.64,28.39,28.39,0,0,1,2.33,9.46,29.41,29.41,0,0,1-.94,9.7,24.72,24.72,0,0,1-.91,2.81A4.52,4.52,0,0,1,257.11,310.92Z" style="fill:#263238"></path><path d="M273.83,309.49a18.7,18.7,0,0,1-.45-3c-.23-1.84-.54-4.39-1.14-7.15s-1.38-5.21-1.94-7a19.26,19.26,0,0,1-.83-2.9,17.19,17.19,0,0,1,1.18,2.78,50.7,50.7,0,0,1,2.1,7,52.35,52.35,0,0,1,1,7.24A15.93,15.93,0,0,1,273.83,309.49Z" style="fill:#263238"></path><path d="M169.16,197.26,170.64,187s.38-7.71-1.48-11.56.45-5.91,5.07-2.32,5.14,6.68,5.14,6.68,6.94-19.27,9.51-24.4S198.13,141,198.13,141s10.53-16.18,11.3-16.44,2.57-.26,1.8,2.57l4.11-2.68s4.62,1.91,1.28,8.07-7.7,15.16-7.7,15.16l-.26,4.37,11.82-14.39s5.13-2.31,3.34,3.85-8,15.93-8,15.93l-3.08,15.67a38.07,38.07,0,0,1-.51,13.11c-1.55,7.19-11.8,28.28-18.1,30.32S169.16,197.26,169.16,197.26Z" style="fill:#ffbf9d"></path><path d="M169.16,197.26l.27.28.77.83c.68.73,1.7,1.81,3,3.2s3,3.08,5,5a86.78,86.78,0,0,0,7.27,6.21,28.06,28.06,0,0,0,4.77,2.95,7.39,7.39,0,0,0,2.85.75,4.5,4.5,0,0,0,2.75-1.15,25,25,0,0,0,4.43-5,68.27,68.27,0,0,0,3.83-6.06,98.71,98.71,0,0,0,6.64-14.2,31.55,31.55,0,0,0,1.21-4,39,39,0,0,0,.64-4.22,37.54,37.54,0,0,0-.14-8.79v-.08c1-5,2-10.25,3.07-15.68v0l0,0a111.09,111.09,0,0,0,6-10.82,32.11,32.11,0,0,0,2.19-5.89,5.71,5.71,0,0,0,.14-1.53,1.67,1.67,0,0,0-.51-1.26,1.84,1.84,0,0,0-1.34-.3,4.9,4.9,0,0,0-1.49.39l.1-.08-11.82,14.39-.51.62.05-.8c0-.35,0-.72.06-1.1.07-1.09.13-2.18.2-3.27v0l0,0,6-11.9,1.49-2.92c.25-.49.47-1,.7-1.44a8.73,8.73,0,0,0,.48-1.5,5,5,0,0,0-.14-3,4.14,4.14,0,0,0-2-2.12l.24,0-4.11,2.67-.55.36L211,127c.2-.73.32-1.62-.13-2.09a1.17,1.17,0,0,0-.93-.26l-.26,0-.13,0s0,0,0,0a5.27,5.27,0,0,0-.37.42c-1,1.26-1.89,2.59-2.8,3.89-1.8,2.62-3.53,5.22-5.23,7.79-.84,1.28-1.68,2.55-2.5,3.81s-1.73,2.46-2.57,3.68c-1.68,2.43-3.29,4.84-4.77,7.25-.74,1.2-1.45,2.41-2.07,3.63S188,157.75,187.5,159c-1,2.48-2,4.93-2.91,7.32-1.84,4.77-3.51,9.29-5.05,13.51l-.2.56-.15-.59a10.36,10.36,0,0,0-2.3-4,19.85,19.85,0,0,0-3.28-3,5.9,5.9,0,0,0-3.73-1.43,1.38,1.38,0,0,0-.8.39,1.6,1.6,0,0,0-.37.8,3.64,3.64,0,0,0,.21,1.82c.19.58.47,1.14.69,1.72a14.46,14.46,0,0,1,.5,1.72,27.77,27.77,0,0,1,.49,3.32,44.51,44.51,0,0,1,.13,5.79h0c-.5,3.34-.88,5.9-1.15,7.64l-.3,2c-.07.44-.12.67-.12.67s0-.22.07-.66.14-1.1.26-2l1-7.69h0a44.52,44.52,0,0,0-.18-5.75,18.94,18.94,0,0,0-1.71-6.7,3.9,3.9,0,0,1-.23-2,1.84,1.84,0,0,1,.44-1,1.75,1.75,0,0,1,1-.48,6.12,6.12,0,0,1,4,1.47,20.42,20.42,0,0,1,3.35,3,10.69,10.69,0,0,1,2.4,4.16l-.35,0c1.52-4.23,3.18-8.76,5-13.54.92-2.39,1.87-4.84,2.9-7.34.52-1.25,1.06-2.51,1.68-3.76s1.35-2.45,2.09-3.67c1.48-2.42,3.09-4.84,4.76-7.28l2.56-3.67,2.5-3.82q2.53-3.85,5.22-7.8c.91-1.31,1.81-2.63,2.82-3.92a4.65,4.65,0,0,1,.43-.48.85.85,0,0,1,.21-.14l.17,0a1.91,1.91,0,0,1,.33-.06,1.67,1.67,0,0,1,1.33.4,1.75,1.75,0,0,1,.46,1.31,4.88,4.88,0,0,1-.19,1.27l-.38-.27,4.11-2.68.12-.08.12.06a4.61,4.61,0,0,1,2.29,2.39,5.47,5.47,0,0,1,.17,3.32,10.75,10.75,0,0,1-.5,1.58c-.24.5-.48,1-.73,1.49l-1.48,2.91-6,11.88,0-.1c-.07,1.09-.13,2.18-.2,3.27,0,.38,0,.75-.06,1.1l-.46-.18c4-4.93,8-9.78,11.82-14.38l0,0,.05,0A5.29,5.29,0,0,1,222,137a2.36,2.36,0,0,1,1.72.41,2.22,2.22,0,0,1,.7,1.63,7,7,0,0,1-.16,1.66,32.33,32.33,0,0,1-2.23,6,109.88,109.88,0,0,1-6,10.87l0-.08L213,173.14v-.09a38.05,38.05,0,0,1,.14,8.91,42.21,42.21,0,0,1-.66,4.27,35.09,35.09,0,0,1-1.24,4,99,99,0,0,1-6.71,14.25,71.92,71.92,0,0,1-3.87,6.08,24.67,24.67,0,0,1-4.52,5,4.8,4.8,0,0,1-3,1.22,7.93,7.93,0,0,1-3-.8,28.16,28.16,0,0,1-4.82-3,86.25,86.25,0,0,1-7.25-6.28c-2-1.94-3.68-3.65-5-5.06s-2.33-2.5-3-3.25l-.74-.86A2.64,2.64,0,0,1,169.16,197.26Z" style="fill:#ff9a6c"></path><path d="M210.61,127.27a10.8,10.8,0,0,1-.89,1.46l-2.56,3.88a103.1,103.1,0,0,0-7.63,13.26,58.19,58.19,0,0,0-4.48,14.57c-.33,1.94-.5,3.51-.6,4.61a12.69,12.69,0,0,1-.2,1.69,1.25,1.25,0,0,1,0-.44c0-.29,0-.72,0-1.27a45.32,45.32,0,0,1,.45-4.64,53.58,53.58,0,0,1,4.37-14.73,89.24,89.24,0,0,1,7.79-13.26c1.12-1.61,2.05-2.9,2.7-3.79A11.65,11.65,0,0,1,210.61,127.27Z" style="fill:#ff9a6c"></path><path d="M209.18,151.72c.06.07-1,.91-2.21,2.62a22.46,22.46,0,0,0-3.4,7.42,50.8,50.8,0,0,0-1.3,8.15,26.24,26.24,0,0,1-.4,3.42,3.06,3.06,0,0,1-.05-.92c0-.6,0-1.46.08-2.52a41.32,41.32,0,0,1,1.17-8.26,20.75,20.75,0,0,1,3.61-7.52,14.06,14.06,0,0,1,1.74-1.84A3.08,3.08,0,0,1,209.18,151.72Z" style="fill:#ff9a6c"></path><path d="M195.68,145.34a18.76,18.76,0,0,1-.92,2.88c-.61,1.76-1.42,4.2-2.2,6.94s-1.37,5.24-1.77,7.06a21.89,21.89,0,0,1-.72,2.93,14.3,14.3,0,0,1,.36-3,71.27,71.27,0,0,1,4-14A14.94,14.94,0,0,1,195.68,145.34Z" style="fill:#ff9a6c"></path><path d="M179.67,178.08a11,11,0,0,1-.49,2.3c-.41,1.6-.89,3.45-1.41,5.49s-1,3.9-1.38,5.5a11.13,11.13,0,0,1-.67,2.26,10.38,10.38,0,0,1,.31-2.34c.26-1.43.69-3.4,1.23-5.55s1.11-4.08,1.57-5.46A10.14,10.14,0,0,1,179.67,178.08Z" style="fill:#ff9a6c"></path><path d="M269.2,140.4a2.83,2.83,0,0,0-4.55,3.29s.05.09.08.14c2.88,4.79,12.7,20.47,12.7,20.47l2.4,5.4s5.17,8.22,6.13,10.61,14.11,23.89,15.84,25.8,10.84,0,10.84,0l9.83-19.4-9.83-22.41s.48-3.22-1.43-2.51a12.53,12.53,0,0,0-2.88,1.44l-21.7-31.41s-5.66-9.5-9.74-3.07c0,0-4.77,1.44-2.07,7.92a46.69,46.69,0,0,0,7.4,12.19l3.83,10.06Z" style="fill:#ffbf9d"></path><path d="M269.2,140.4s.11.1.3.3l.87.92,3.32,3.6,12.48,13.6-.26.15c-1.16-3-2.46-6.41-3.86-10.05l0,.06a46.57,46.57,0,0,1-6.14-9.37q-.66-1.34-1.26-2.73a11.51,11.51,0,0,1-.85-3,5.55,5.55,0,0,1,.49-3.17,4.59,4.59,0,0,1,2.49-2.17l-.12.09a5.49,5.49,0,0,1,2.09-2,3.57,3.57,0,0,1,3,0,12.12,12.12,0,0,1,4.4,4L293.24,141l15.3,22.13-.36-.06a13.12,13.12,0,0,1,3.07-1.52,1.2,1.2,0,0,1,1.05.1,1.55,1.55,0,0,1,.55.88,5.43,5.43,0,0,1,0,1.84l0-.14c1.35,3.07,2.78,6.35,4.23,9.66q2.83,6.47,5.59,12.76l.05.11-.05.11q-5.07,10-9.83,19.4l-.06.1-.11,0a39.63,39.63,0,0,1-7.63.85,11.26,11.26,0,0,1-1.91-.2,2.7,2.7,0,0,1-1.71-1c-.78-1-1.43-2-2.1-3.05-2.64-4.07-5.09-8.07-7.43-11.92l-3.39-5.68a59.17,59.17,0,0,1-3-5.56c-1.85-3.63-3.94-6.93-5.85-10h0v0c-.86-1.93-1.64-3.7-2.39-5.4v0L264.75,144a3.2,3.2,0,0,1-.58-1.91,2.77,2.77,0,0,1,.67-1.61,3,3,0,0,1,2.42-1.1,2.79,2.79,0,0,1,1.54.59c.27.26.4.4.4.4s-.15-.11-.43-.36a2.72,2.72,0,0,0-1.51-.53A2.92,2.92,0,0,0,265,140.6a2.63,2.63,0,0,0-.61,1.53,3,3,0,0,0,.57,1.8l12.67,20.27v0h0l2.4,5.39v0c1.93,3.11,4,6.38,5.92,10.06a59.93,59.93,0,0,0,3,5.52l3.4,5.67c2.35,3.84,4.8,7.83,7.45,11.89.67,1,1.34,2,2.07,3a2.18,2.18,0,0,0,1.45.79,10.78,10.78,0,0,0,1.81.19,39.56,39.56,0,0,0,7.51-.85l-.17.13,9.81-19.4v.22q-2.76-6.28-5.59-12.77c-1.45-3.3-2.89-6.58-4.23-9.65l0-.06v-.08a4.72,4.72,0,0,0-.05-1.64c-.12-.54-.45-.79-.94-.61a12.71,12.71,0,0,0-2.91,1.43l-.22.15-.15-.21-15.29-22.16c-2.42-3.51-4.77-6.94-7-10.25a11.66,11.66,0,0,0-4.2-3.9A3.1,3.1,0,0,0,279,127a5.08,5.08,0,0,0-1.91,1.86l0,.06-.08,0a4.24,4.24,0,0,0-2.24,1.95,5.16,5.16,0,0,0-.45,2.93,18.78,18.78,0,0,0,2.05,5.59,46.67,46.67,0,0,0,6,9.31l0,0v0c1.38,3.65,2.66,7.05,3.81,10.07l.29.77-.55-.61-12.37-13.69-3.26-3.65-.84-1Z" style="fill:#ff9a6c"></path><path d="M292.49,168c-.15,0-.88-2-2.07-4.35a4.33,4.33,0,0,0-2-2.42,3.22,3.22,0,0,0-1.32-.14c-.05,0,.5-.47,1.44-.21a2.9,2.9,0,0,1,1.36.9,7.85,7.85,0,0,1,1,1.64A13.57,13.57,0,0,1,292.49,168Z" style="fill:#ff9a6c"></path><path d="M296.91,158.71a7.27,7.27,0,0,1-.7-1.22c-.42-.8-1-2-1.82-3.38-1.56-2.84-3.86-6.67-6.66-10.74s-5.46-7.68-7.34-10.32l-2.21-3.14a7.23,7.23,0,0,1-.76-1.19,6.94,6.94,0,0,1,.92,1.07l2.35,3c2,2.58,4.67,6.16,7.47,10.25a99.69,99.69,0,0,1,6.55,10.86c.75,1.44,1.31,2.63,1.68,3.46A7.34,7.34,0,0,1,296.91,158.71Z" style="fill:#ff9a6c"></path><path d="M301.27,166.11a8.59,8.59,0,0,0-3.47-7s.49.09,1.12.54a6.25,6.25,0,0,1,1.92,2.3,6.39,6.39,0,0,1,.68,2.91C301.49,165.67,301.33,166.12,301.27,166.11Z" style="fill:#ff9a6c"></path><path d="M315.42,176.83a11.53,11.53,0,0,1-1.23-2l-2.75-5c-1.07-1.94-2-3.73-2.62-5a10.26,10.26,0,0,1-.91-2.18,10.6,10.6,0,0,1,1.23,2c.8,1.44,1.73,3.12,2.76,5s2,3.73,2.62,5.05A9.83,9.83,0,0,1,315.42,176.83Z" style="fill:#ff9a6c"></path><path d="M229.1,416.59a2.33,2.33,0,0,1,.54-.2l1.57-.48,1.13-.34c.41-.13.85-.3,1.32-.47.94-.35,2-.7,3.19-1.23l1.83-.79c.63-.27,1.26-.62,1.93-.95,1.35-.64,2.71-1.47,4.15-2.31a63.93,63.93,0,0,0,8.71-6.51,63.3,63.3,0,0,0,7.36-8c1-1.35,1.95-2.62,2.72-3.9.39-.63.81-1.22,1.15-1.82s.65-1.18,1-1.74c.65-1.09,1.1-2.15,1.55-3,.22-.45.43-.87.6-1.27s.32-.75.45-1.09l.64-1.51a2,2,0,0,1,.26-.51,3.09,3.09,0,0,1-.16.55c-.15.41-.33.92-.55,1.55-.12.34-.26.71-.41,1.11s-.36.83-.56,1.29c-.43.92-.86,2-1.49,3.1-.3.57-.62,1.16-.95,1.77s-.74,1.21-1.12,1.85c-.76,1.3-1.72,2.59-2.7,4A56.85,56.85,0,0,1,245,410.23c-1.46.84-2.84,1.66-4.21,2.28-.68.33-1.32.67-2,.94l-1.85.76c-1.17.52-2.28.84-3.24,1.17-.48.15-.92.31-1.34.43l-1.15.29-1.59.39A2.37,2.37,0,0,1,229.1,416.59Z" style="fill:#263238"></path><path d="M177.89,199.37C176,199.58,81.5,245.74,81,267.43s7.48,31.39,15.52,43.72,51.15,58.65,53.52,59.5S184.51,327,184.51,327l-13.23-30.2s-4.26-11.9-17.49-6.16l-10.86-10.43L201.52,224S212.38,195.54,177.89,199.37Z" style="fill:#407BFF"></path><path d="M160,346.38a1.39,1.39,0,0,1,.12-.48c.11-.36.26-.8.43-1.33a21.61,21.61,0,0,0,.64-2.12c.22-.83.52-1.77.71-2.84.11-.53.22-1.09.34-1.67s.18-1.19.28-1.82c.21-1.26.28-2.62.4-4a48.37,48.37,0,0,0-2.57-18.34c-.5-1.35-1-2.63-1.5-3.78-.26-.58-.49-1.16-.76-1.68s-.54-1-.79-1.51c-.47-1-1-1.79-1.46-2.54a21.63,21.63,0,0,0-1.2-1.85l-.78-1.17a2,2,0,0,1-.25-.42s.13.11.33.36l.87,1.11a19.48,19.48,0,0,1,1.28,1.82c.46.73,1,1.54,1.53,2.51.27.48.54,1,.83,1.51s.52,1.1.79,1.68c.58,1.15,1,2.45,1.56,3.8a46.55,46.55,0,0,1,2.6,18.52c-.13,1.44-.22,2.82-.46,4.08-.1.64-.17,1.25-.3,1.84l-.38,1.67a27.37,27.37,0,0,1-.79,2.84,17.8,17.8,0,0,1-.73,2.1c-.21.52-.38.95-.53,1.31A2.4,2.4,0,0,1,160,346.38Z" style="fill:#263238"></path><path d="M166.1,386.21a5.68,5.68,0,0,1,.36-.73l1.1-2,.81-1.47c.28-.54.55-1.15.87-1.8.6-1.29,1.36-2.73,2-4.42l1.07-2.61c.37-.91.67-1.89,1-2.88.74-2,1.32-4.17,2-6.46a89.49,89.49,0,0,0,2.6-30.69c-.26-2.36-.46-4.62-.86-6.7-.18-1-.32-2.06-.53-3s-.42-1.88-.62-2.76c-.35-1.77-.86-3.32-1.23-4.7-.2-.68-.37-1.33-.56-1.91s-.38-1.11-.54-1.59c-.31-.92-.56-1.65-.75-2.2a4.19,4.19,0,0,1-.22-.78,4.94,4.94,0,0,1,.32.74l.84,2.17.59,1.58c.2.58.38,1.22.6,1.91.4,1.37.94,2.92,1.31,4.69l.66,2.76c.22,1,.36,2,.56,3,.42,2.09.63,4.35.91,6.73a87.22,87.22,0,0,1-2.62,30.85c-.67,2.3-1.27,4.49-2,6.48-.37,1-.68,2-1.06,2.89s-.76,1.77-1.11,2.61c-.67,1.68-1.46,3.12-2.09,4.4-.33.64-.62,1.25-.91,1.79l-.85,1.45c-.5.83-.89,1.5-1.19,2A4.07,4.07,0,0,1,166.1,386.21Z" style="fill:#263238"></path><path d="M152.2,271.83a8,8,0,0,1-1.06,1.08c-.7.67-1.75,1.62-3.06,2.77-2.61,2.3-6.32,5.37-10.56,8.58s-8.18,6-11.06,7.93c-1.45,1-2.62,1.75-3.44,2.28a8.66,8.66,0,0,1-1.31.77,9.21,9.21,0,0,1,1.19-.94l3.35-2.41c2.82-2,6.72-4.84,10.95-8.05s8-6.22,10.64-8.44l3.17-2.64A7.62,7.62,0,0,1,152.2,271.83Z" style="fill:#263238"></path><path d="M298.64,203.37s5.55-23.54,31-18.69c0,0,54.85,38.26,70.8,58.58s11.18,28,6.89,38.48-19.37,28.08-46.9,50.95l-36.61,27.63s-30.72-63.08-27.64-67.63c1.49-2.19,48.6-22.53,48.6-22.53S342.9,268,346,264.51h0l-18.81-23Z" style="fill:#407BFF"></path><path d="M400.17,259a4.59,4.59,0,0,1,.6,2.29,8.21,8.21,0,0,1-1.59,5.46,8.69,8.69,0,0,1-4.77,3.13,5.08,5.08,0,0,1-2.36.19c0-.09.91-.11,2.26-.54a9.09,9.09,0,0,0,4.45-3.09,8.44,8.44,0,0,0,1.64-5.14C400.39,259.86,400.08,259,400.17,259Z" style="fill:#263238"></path><path d="M324.19,418.7s0-.1,0-.29.07-.48.11-.82c.11-.77.27-1.83.46-3.18.45-2.74,1-6.74,1.54-11.68,1-9.87,2-23.73-.55-38.72a113.76,113.76,0,0,0-5.66-20.58c-.61-1.52-1.16-3-1.76-4.46l-1.86-4.13c-.3-.67-.59-1.33-.89-2l-1-1.85q-.91-1.81-1.77-3.48c-2.38-4.37-4.37-7.87-5.87-10.22l-1.66-2.74-.42-.72a1.21,1.21,0,0,1-.13-.26,1.64,1.64,0,0,1,.18.23l.46.69c.42.65,1,1.55,1.75,2.69,1.54,2.32,3.59,5.8,6,10.15l1.8,3.47,1,1.85c.32.64.6,1.3.91,2l1.89,4.14c.61,1.44,1.17,2.94,1.79,4.47a112,112,0,0,1,5.72,20.66c2.53,15.07,1.53,29,.41,38.85-.62,4.94-1.2,8.94-1.71,11.68-.23,1.34-.42,2.39-.56,3.15-.06.34-.11.61-.15.82A.92.92,0,0,1,324.19,418.7Z" style="fill:#263238"></path><path d="M351.35,281.47a7.76,7.76,0,0,1-1.54-1.49,27.87,27.87,0,0,1-3-4.19,28.16,28.16,0,0,1-2.19-4.68,7.39,7.39,0,0,1-.54-2.07c.16-.05,1.15,3,3.18,6.49S351.48,281.36,351.35,281.47Z" style="fill:#263238"></path><path d="M363.91,281a3.69,3.69,0,0,1-.86-.49c-.53-.34-1.28-.86-2.2-1.53-1.83-1.33-4.29-3.26-6.87-5.55s-4.78-4.53-6.31-6.2c-.76-.83-1.37-1.52-1.77-2a3.6,3.6,0,0,1-.58-.79,30.31,30.31,0,0,1,2.62,2.55c1.59,1.59,3.82,3.77,6.38,6.06s5,4.25,6.75,5.65A32,32,0,0,1,363.91,281Z" style="fill:#263238"></path><g style="opacity:0.30000000000000004"><path d="M122.55,294.48A18.4,18.4,0,0,0,143.46,279C136.75,283.29,128.8,289.56,122.55,294.48Z"></path></g><g style="opacity:0.30000000000000004"><path d="M324.35,335.45a37.71,37.71,0,0,0-17.46-18.57l-.07.14c9,13.13,14.89,28.58,18.76,44A38.08,38.08,0,0,0,324.35,335.45Z"></path></g></g></svg>